<?xml version="1.0" encoding="us-ascii" standalone="no"?><svg xmlns="http://www.w3.org/2000/svg" xmlns:xlink="http://www.w3.org/1999/xlink" contentStyleType="text/css" height="836px" preserveAspectRatio="none" style="width:1431px;height:836px;background:#FFFFFF;" version="1.1" viewBox="0 0 1431 836" width="1431px" zoomAndPan="magnify"><defs/><g><!--cluster core--><g id="cluster_core"><path d="M1144.5,6 L1175.5,6 A3.75,3.75 0 0 1 1178,8.5 L1185,28.4883 L1421.5,28.4883 A2.5,2.5 0 0 1 1424,30.9883 L1424,160.59 A2.5,2.5 0 0 1 1421.5,163.09 L1144.5,163.09 A2.5,2.5 0 0 1 1142,160.59 L1142,8.5 A2.5,2.5 0 0 1 1144.5,6 " fill="none" style="stroke:#000000;stroke-width:1.5;"/><line style="stroke:#000000;stroke-width:1.5;" x1="1142" x2="1185" y1="28.4883" y2="28.4883"/><text fill="#000000" font-family="sans-serif" font-size="14" font-weight="bold" lengthAdjust="spacing" textLength="30" x="1146" y="21.5352">core</text></g><!--cluster distributed--><g id="cluster_distributed"><path d="M8.5,196.09 L89.5,196.09 A3.75,3.75 0 0 1 92,198.59 L99,218.5783 L1306.5,218.5783 A2.5,2.5 0 0 1 1309,221.0783 L1309,827 A2.5,2.5 0 0 1 1306.5,829.5 L8.5,829.5 A2.5,2.5 0 0 1 6,827 L6,198.59 A2.5,2.5 0 0 1 8.5,196.09 " fill="none" style="stroke:#000000;stroke-width:1.5;"/><line style="stroke:#000000;stroke-width:1.5;" x1="6" x2="99" y1="218.5783" y2="218.5783"/><text fill="#000000" font-family="sans-serif" font-size="14" font-weight="bold" lengthAdjust="spacing" textLength="80" x="10" y="211.6252">distributed</text></g><!--cluster shared--><g id="cluster_shared"><path d="M32.5,239.09 L81.5,239.09 A3.75,3.75 0 0 1 84,241.59 L91,261.5783 L1282.5,261.5783 A2.5,2.5 0 0 1 1285,264.0783 L1285,560.76 A2.5,2.5 0 0 1 1282.5,563.26 L32.5,563.26 A2.5,2.5 0 0 1 30,560.76 L30,241.59 A2.5,2.5 0 0 1 32.5,239.09 " fill="none" style="stroke:#000000;stroke-width:1.5;"/><line style="stroke:#000000;stroke-width:1.5;" x1="30" x2="91" y1="261.5783" y2="261.5783"/><text fill="#000000" font-family="sans-serif" font-size="14" font-weight="bold" lengthAdjust="spacing" textLength="48" x="34" y="254.6252">shared</text></g><!--cluster jvm-native--><g id="cluster_jvm-native"><path d="M36.5,596.26 L117.5,596.26 A3.75,3.75 0 0 1 120,598.76 L127,618.7483 L299.5,618.7483 A2.5,2.5 0 0 1 302,621.2483 L302,803 A2.5,2.5 0 0 1 299.5,805.5 L36.5,805.5 A2.5,2.5 0 0 1 34,803 L34,598.76 A2.5,2.5 0 0 1 36.5,596.26 " fill="none" style="stroke:#000000;stroke-width:1.5;"/><line style="stroke:#000000;stroke-width:1.5;" x1="34" x2="127" y1="618.7483" y2="618.7483"/><text fill="#000000" font-family="sans-serif" font-size="14" font-weight="bold" lengthAdjust="spacing" textLength="80" x="38" y="611.7952">jvm-native</text></g><!--cluster js--><g id="cluster_js"><path d="M328.5,596.26 L342.5,596.26 A3.75,3.75 0 0 1 345,598.76 L352,618.7483 L591.5,618.7483 A2.5,2.5 0 0 1 594,621.2483 L594,803 A2.5,2.5 0 0 1 591.5,805.5 L328.5,805.5 A2.5,2.5 0 0 1 326,803 L326,598.76 A2.5,2.5 0 0 1 328.5,596.26 " fill="none" style="stroke:#000000;stroke-width:1.5;"/><line style="stroke:#000000;stroke-width:1.5;" x1="326" x2="352" y1="618.7483" y2="618.7483"/><text fill="#000000" font-family="sans-serif" font-size="14" font-weight="bold" lengthAdjust="spacing" textLength="13" x="330" y="611.7952">js</text></g><!--class NetworkManager--><g id="elem_NetworkManager"><rect codeLine="9" fill="#F1F1F1" height="106.0859" id="NetworkManager" rx="2.5" ry="2.5" style="stroke:#181818;stroke-width:0.5;" width="250" x="1158" y="41"/><ellipse cx="1220.25" cy="61.3105" fill="#FEFECE" rx="11" ry="11" style="stroke:#181818;stroke-width:1.0;"/><path d="M1221.5918,68.5605 L1219.1431,68.5605 L1219.1431,58.3091 L1215.9971,58.3091 L1215.9971,56.1675 L1224.7378,56.1675 L1224.7378,58.3091 L1221.5918,58.3091 Z " fill="#000000"/><text fill="#000000" font-family="sans-serif" font-size="12" font-style="italic" lengthAdjust="spacing" textLength="35" x="1281.75" y="57.6016">&#171;trait&#187;</text><text fill="#000000" font-family="sans-serif" font-size="14" font-style="italic" lengthAdjust="spacing" textLength="117" x="1240.75" y="73.668">NetworkManager</text><line style="stroke:#181818;stroke-width:0.5;" x1="1159" x2="1407" y1="81.6211" y2="81.6211"/><ellipse cx="1169" cy="95.3652" fill="none" rx="3" ry="3" style="stroke:#038048;stroke-width:1.0;"/><text fill="#000000" font-family="sans-serif" font-size="14" lengthAdjust="spacing" textLength="90" x="1178" y="99.1563">type DeviceId</text><line style="stroke:#181818;stroke-width:0.5;" x1="1159" x2="1407" y1="106.1094" y2="106.1094"/><ellipse cx="1169" cy="119.8535" fill="#84BE84" rx="3" ry="3" style="stroke:#038048;stroke-width:1.0;"/><text fill="#000000" font-family="sans-serif" font-size="14" lengthAdjust="spacing" textLength="224" x="1178" y="123.6445">send(message: Export[DeviceId])</text><ellipse cx="1169" cy="136.3418" fill="#84BE84" rx="3" ry="3" style="stroke:#038048;stroke-width:1.0;"/><text fill="#000000" font-family="sans-serif" font-size="14" lengthAdjust="spacing" textLength="179" x="1178" y="140.1328">receive(): Import[DeviceId]</text></g><!--class ConnectionOrientedNetworking--><g id="elem_ConnectionOrientedNetworking"><rect codeLine="26" fill="#F1F1F1" height="122.5742" id="ConnectionOrientedNetworking" rx="2.5" ry="2.5" style="stroke:#181818;stroke-width:0.5;" width="470" x="393" y="274.09"/><ellipse cx="514.75" cy="294.4005" fill="#FEFECE" rx="11" ry="11" style="stroke:#181818;stroke-width:1.0;"/><path d="M516.0918,301.6505 L513.6431,301.6505 L513.6431,291.3991 L510.4971,291.3991 L510.4971,289.2575 L519.2378,289.2575 L519.2378,291.3991 L516.0918,291.3991 Z " fill="#000000"/><text fill="#000000" font-family="sans-serif" font-size="12" font-style="italic" lengthAdjust="spacing" textLength="35" x="626.75" y="290.6916">&#171;trait&#187;</text><text fill="#000000" font-family="sans-serif" font-size="14" font-style="italic" lengthAdjust="spacing" textLength="218" x="535.25" y="306.758">ConnectionOrientedNetworking</text><line style="stroke:#181818;stroke-width:0.5;" x1="394" x2="862" y1="314.7111" y2="314.7111"/><ellipse cx="404" cy="328.4552" fill="none" rx="3" ry="3" style="stroke:#038048;stroke-width:1.0;"/><text fill="#000000" font-family="sans-serif" font-size="14" lengthAdjust="spacing" textLength="105" x="413" y="332.2463">type MessageIn</text><ellipse cx="404" cy="344.9435" fill="none" rx="3" ry="3" style="stroke:#038048;stroke-width:1.0;"/><text fill="#000000" font-family="sans-serif" font-size="14" lengthAdjust="spacing" textLength="117" x="413" y="348.7345">type MessageOut</text><line style="stroke:#181818;stroke-width:0.5;" x1="394" x2="862" y1="355.6877" y2="355.6877"/><ellipse cx="404" cy="369.4318" fill="#84BE84" rx="3" ry="3" style="stroke:#038048;stroke-width:1.0;"/><text fill="#000000" font-family="sans-serif" font-size="14" lengthAdjust="spacing" textLength="307" x="413" y="373.2228">out(endpoint: Endpoint): Future[Connection]</text><ellipse cx="404" cy="385.9201" fill="#84BE84" rx="3" ry="3" style="stroke:#038048;stroke-width:1.0;"/><text fill="#000000" font-family="sans-serif" font-size="14" lengthAdjust="spacing" textLength="444" x="413" y="389.7111">in(port: Port)(onReceive: MessageIn =&gt; Unit): Future[ListenerRef]</text></g><!--class Connection--><g id="elem_Connection"><rect codeLine="36" fill="#F1F1F1" height="89.5977" id="Connection" rx="2.5" ry="2.5" style="stroke:#181818;stroke-width:0.5;" width="312" x="46" y="290.57"/><ellipse cx="158.25" cy="310.8805" fill="#FEFECE" rx="11" ry="11" style="stroke:#181818;stroke-width:1.0;"/><path d="M159.5918,318.1305 L157.1431,318.1305 L157.1431,307.8791 L153.9971,307.8791 L153.9971,305.7375 L162.7378,305.7375 L162.7378,307.8791 L159.5918,307.8791 Z " fill="#000000"/><text fill="#000000" font-family="sans-serif" font-size="12" font-style="italic" lengthAdjust="spacing" textLength="35" x="200.75" y="307.1716">&#171;trait&#187;</text><text fill="#000000" font-family="sans-serif" font-size="14" font-style="italic" lengthAdjust="spacing" textLength="79" x="178.75" y="323.238">Connection</text><line style="stroke:#181818;stroke-width:0.5;" x1="47" x2="357" y1="331.1911" y2="331.1911"/><line style="stroke:#181818;stroke-width:0.5;" x1="47" x2="357" y1="339.1911" y2="339.1911"/><ellipse cx="57" cy="352.9352" fill="#84BE84" rx="3" ry="3" style="stroke:#038048;stroke-width:1.0;"/><text fill="#000000" font-family="sans-serif" font-size="14" lengthAdjust="spacing" textLength="286" x="66" y="356.7263">send(message: MessageOut): Future[Unit]</text><ellipse cx="57" cy="369.4235" fill="#84BE84" rx="3" ry="3" style="stroke:#038048;stroke-width:1.0;"/><text fill="#000000" font-family="sans-serif" font-size="14" lengthAdjust="spacing" textLength="45" x="66" y="373.2145">close()</text></g><!--class ListenerRef--><g id="elem_ListenerRef"><rect codeLine="41" fill="#F1F1F1" height="80.9766" id="ListenerRef" rx="2.5" ry="2.5" style="stroke:#181818;stroke-width:0.5;" width="161" x="898.5" y="294.88"/><ellipse cx="937.35" cy="310.88" fill="#ADD1B2" rx="11" ry="11" style="stroke:#181818;stroke-width:1.0;"/><path d="M939.8231,317.0231 Q939.2421,317.3219 938.6029,317.4713 Q937.9638,317.6207 937.2582,317.6207 Q934.7514,317.6207 933.4315,315.9689 Q932.1117,314.317 932.1117,311.1959 Q932.1117,308.0665 933.4315,306.4147 Q934.7514,304.7628 937.2582,304.7628 Q937.9638,304.7628 938.6112,304.9122 Q939.2587,305.0616 939.8231,305.3605 L939.8231,308.0831 Q939.1923,307.5021 938.5988,307.2323 Q938.0053,306.9625 937.3744,306.9625 Q936.0297,306.9625 935.3449,308.0292 Q934.6601,309.0958 934.6601,311.1959 Q934.6601,313.2877 935.3449,314.3544 Q936.0297,315.421 937.3744,315.421 Q938.0053,315.421 938.5988,315.1512 Q939.1923,314.8815 939.8231,314.3004 Z " fill="#000000"/><text fill="#000000" font-family="sans-serif" font-size="14" lengthAdjust="spacing" textLength="76" x="956.65" y="316.171">ListenerRef</text><line style="stroke:#181818;stroke-width:0.5;" x1="899.5" x2="1058.5" y1="326.88" y2="326.88"/><ellipse cx="909.5" cy="340.6241" fill="none" rx="3" ry="3" style="stroke:#038048;stroke-width:1.0;"/><text fill="#000000" font-family="sans-serif" font-size="14" lengthAdjust="spacing" textLength="113" x="918.5" y="344.4152">listener: Listener</text><ellipse cx="909.5" cy="357.1124" fill="none" rx="3" ry="3" style="stroke:#038048;stroke-width:1.0;"/><text fill="#000000" font-family="sans-serif" font-size="14" lengthAdjust="spacing" textLength="135" x="918.5" y="360.9034">accept: Future[Unit]</text><line style="stroke:#181818;stroke-width:0.5;" x1="899.5" x2="1058.5" y1="367.8566" y2="367.8566"/></g><!--class Listener--><g id="elem_Listener"><rect codeLine="46" fill="#F1F1F1" height="89.5977" id="Listener" rx="2.5" ry="2.5" style="stroke:#181818;stroke-width:0.5;" width="135" x="1094.5" y="290.57"/><ellipse cx="1131.55" cy="310.8805" fill="#FEFECE" rx="11" ry="11" style="stroke:#181818;stroke-width:1.0;"/><path d="M1132.8918,318.1305 L1130.4431,318.1305 L1130.4431,307.8791 L1127.2971,307.8791 L1127.2971,305.7375 L1136.0378,305.7375 L1136.0378,307.8791 L1132.8918,307.8791 Z " fill="#000000"/><text fill="#000000" font-family="sans-serif" font-size="12" font-style="italic" lengthAdjust="spacing" textLength="35" x="1159.95" y="307.1716">&#171;trait&#187;</text><text fill="#000000" font-family="sans-serif" font-size="14" font-style="italic" lengthAdjust="spacing" textLength="54" x="1150.45" y="323.238">Listener</text><line style="stroke:#181818;stroke-width:0.5;" x1="1095.5" x2="1228.5" y1="331.1911" y2="331.1911"/><ellipse cx="1105.5" cy="344.9352" fill="none" rx="3" ry="3" style="stroke:#038048;stroke-width:1.0;"/><text fill="#000000" font-family="sans-serif" font-size="14" lengthAdjust="spacing" textLength="109" x="1114.5" y="348.7263">boundPort: Port</text><line style="stroke:#181818;stroke-width:0.5;" x1="1095.5" x2="1228.5" y1="355.6794" y2="355.6794"/><ellipse cx="1105.5" cy="369.4235" fill="#84BE84" rx="3" ry="3" style="stroke:#038048;stroke-width:1.0;"/><text fill="#000000" font-family="sans-serif" font-size="14" lengthAdjust="spacing" textLength="45" x="1114.5" y="373.2145">close()</text></g><!--class ConnectionOrientedTemplate--><g id="elem_ConnectionOrientedTemplate"><rect codeLine="51" fill="#F1F1F1" height="89.5977" id="ConnectionOrientedTemplate" rx="2.5" ry="2.5" style="stroke:#181818;stroke-width:0.5;" width="268" x="46" y="457.66"/><ellipse cx="75.85" cy="477.9705" fill="#FEFECE" rx="11" ry="11" style="stroke:#181818;stroke-width:1.0;"/><path d="M77.1918,485.2205 L74.7431,485.2205 L74.7431,474.9691 L71.5971,474.9691 L71.5971,472.8275 L80.3378,472.8275 L80.3378,474.9691 L77.1918,474.9691 Z " fill="#000000"/><text fill="#000000" font-family="sans-serif" font-size="12" font-style="italic" lengthAdjust="spacing" textLength="35" x="177.15" y="474.2616">&#171;trait&#187;</text><text fill="#000000" font-family="sans-serif" font-size="14" font-style="italic" lengthAdjust="spacing" textLength="203" x="93.15" y="490.328">ConnectionOrientedTemplate</text><line style="stroke:#181818;stroke-width:0.5;" x1="47" x2="313" y1="498.2811" y2="498.2811"/><ellipse cx="57" cy="512.0252" fill="none" rx="3" ry="3" style="stroke:#038048;stroke-width:1.0;"/><text fill="#000000" font-family="sans-serif" font-size="14" lengthAdjust="spacing" textLength="231" x="66" y="515.8163">type MessageIn : BinaryDecodable</text><ellipse cx="57" cy="528.5135" fill="none" rx="3" ry="3" style="stroke:#038048;stroke-width:1.0;"/><text fill="#000000" font-family="sans-serif" font-size="14" lengthAdjust="spacing" textLength="242" x="66" y="532.3045">type MessageOut : BinaryEncodable</text><line style="stroke:#181818;stroke-width:0.5;" x1="47" x2="313" y1="539.2577" y2="539.2577"/></g><g id="elem_GMN16"><path d="M349,474.49 L349,498.46 L314.47,502.46 L349,506.46 L349,530.4216 A0,0 0 0 0 349,530.4216 L521,530.4216 A0,0 0 0 0 521,530.4216 L521,484.49 L511,474.49 L349,474.49 A0,0 0 0 0 349,474.49 " fill="#FEFFDD" style="stroke:#181818;stroke-width:0.5;"/><path d="M511,474.49 L511,484.49 L521,484.49 L511,474.49 " fill="#FEFFDD" style="stroke:#181818;stroke-width:0.5;"/><text fill="#000000" font-family="sans-serif" font-size="13" lengthAdjust="spacing" textLength="94" x="355" y="492.0584">Template class</text><text fill="#000000" font-family="sans-serif" font-size="13" lengthAdjust="spacing" textLength="146" x="355" y="507.3689">implementing common</text><text fill="#000000" font-family="sans-serif" font-size="13" lengthAdjust="spacing" textLength="151" x="355" y="522.6795">platform-agnostic logic</text></g><!--class NeighborhoodResolver--><g id="elem_NeighborhoodResolver"><rect codeLine="61" fill="#F1F1F1" height="89.5977" id="NeighborhoodResolver" rx="2.5" ry="2.5" style="stroke:#181818;stroke-width:0.5;" width="333" x="556.5" y="457.66"/><ellipse cx="639.75" cy="477.9705" fill="#FEFECE" rx="11" ry="11" style="stroke:#181818;stroke-width:1.0;"/><path d="M641.0918,485.2205 L638.6431,485.2205 L638.6431,474.9691 L635.4971,474.9691 L635.4971,472.8275 L644.2378,472.8275 L644.2378,474.9691 L641.0918,474.9691 Z " fill="#000000"/><text fill="#000000" font-family="sans-serif" font-size="12" font-style="italic" lengthAdjust="spacing" textLength="35" x="721.75" y="474.2616">&#171;trait&#187;</text><text fill="#000000" font-family="sans-serif" font-size="14" font-style="italic" lengthAdjust="spacing" textLength="158" x="660.25" y="490.328">NeighborhoodResolver</text><line style="stroke:#181818;stroke-width:0.5;" x1="557.5" x2="888.5" y1="498.2811" y2="498.2811"/><ellipse cx="567.5" cy="512.0252" fill="none" rx="3" ry="3" style="stroke:#038048;stroke-width:1.0;"/><text fill="#000000" font-family="sans-serif" font-size="14" lengthAdjust="spacing" textLength="307" x="576.5" y="515.8163">type Neighborhood[DeviceId] = Set[DeviceId]</text><ellipse cx="567.5" cy="528.5135" fill="none" rx="3" ry="3" style="stroke:#038048;stroke-width:1.0;"/><text fill="#000000" font-family="sans-serif" font-size="14" lengthAdjust="spacing" textLength="274" x="576.5" y="532.3045">neighborhood: Neighborhood[DeviceId]</text><line style="stroke:#181818;stroke-width:0.5;" x1="557.5" x2="888.5" y1="539.2577" y2="539.2577"/></g><!--class ConnectionOrientedNetworkManager--><g id="elem_ConnectionOrientedNetworkManager"><rect codeLine="66" fill="#F1F1F1" height="56.6211" id="ConnectionOrientedNetworkManager" rx="2.5" ry="2.5" style="stroke:#181818;stroke-width:0.5;" width="288" x="981" y="474.15"/><ellipse cx="996" cy="494.4605" fill="#FEFECE" rx="11" ry="11" style="stroke:#181818;stroke-width:1.0;"/><path d="M997.3418,501.7105 L994.8931,501.7105 L994.8931,491.4591 L991.7471,491.4591 L991.7471,489.3175 L1000.4878,489.3175 L1000.4878,491.4591 L997.3418,491.4591 Z " fill="#000000"/><text fill="#000000" font-family="sans-serif" font-size="12" font-style="italic" lengthAdjust="spacing" textLength="35" x="1120.5" y="490.7516">&#171;trait&#187;</text><text fill="#000000" font-family="sans-serif" font-size="14" font-style="italic" lengthAdjust="spacing" textLength="256" x="1010" y="506.818">ConnectionOrientedNetworkManager</text><line style="stroke:#181818;stroke-width:0.5;" x1="982" x2="1268" y1="514.7711" y2="514.7711"/><line style="stroke:#181818;stroke-width:0.5;" x1="982" x2="1268" y1="522.7711" y2="522.7711"/></g><!--class ConnectionOrientedTemplate--><g id="elem_ConnectionOrientedTemplate"><rect codeLine="72" fill="#F1F1F1" height="56.6211" id="ConnectionOrientedTemplate" rx="2.5" ry="2.5" style="stroke:#181818;stroke-width:0.5;" width="235" x="50.5" y="631.26"/><ellipse cx="65.5" cy="651.5705" fill="#FEFECE" rx="11" ry="11" style="stroke:#181818;stroke-width:1.0;"/><path d="M66.8418,658.8205 L64.3931,658.8205 L64.3931,648.5691 L61.2471,648.5691 L61.2471,646.4275 L69.9878,646.4275 L69.9878,648.5691 L66.8418,648.5691 Z " fill="#000000"/><text fill="#000000" font-family="sans-serif" font-size="12" font-style="italic" lengthAdjust="spacing" textLength="35" x="163.5" y="647.8616">&#171;trait&#187;</text><text fill="#000000" font-family="sans-serif" font-size="14" font-style="italic" lengthAdjust="spacing" textLength="203" x="79.5" y="663.928">ConnectionOrientedTemplate</text><line style="stroke:#181818;stroke-width:0.5;" x1="51.5" x2="284.5" y1="671.8811" y2="671.8811"/><line style="stroke:#181818;stroke-width:0.5;" x1="51.5" x2="284.5" y1="679.8811" y2="679.8811"/></g><g id="elem_GMN28"><path d="M75.5,748.88 L75.5,789.5011 A0,0 0 0 0 75.5,789.5011 L260.5,789.5011 A0,0 0 0 0 260.5,789.5011 L260.5,758.88 L250.5,748.88 L172,748.88 L168,688.28 L164,748.88 L75.5,748.88 A0,0 0 0 0 75.5,748.88 " fill="#FEFFDD" style="stroke:#181818;stroke-width:0.5;"/><path d="M250.5,748.88 L250.5,758.88 L260.5,758.88 L250.5,748.88 " fill="#FEFFDD" style="stroke:#181818;stroke-width:0.5;"/><text fill="#000000" font-family="sans-serif" font-size="13" lengthAdjust="spacing" textLength="160" x="81.5" y="766.4484">JVM-native socket-based</text><text fill="#000000" font-family="sans-serif" font-size="13" lengthAdjust="spacing" textLength="99" x="81.5" y="781.7589">implementation</text></g><!--class ConnectionOrientedTemplate--><g id="elem_ConnectionOrientedTemplate"><rect codeLine="80" fill="#F1F1F1" height="56.6211" id="ConnectionOrientedTemplate" rx="2.5" ry="2.5" style="stroke:#181818;stroke-width:0.5;" width="235" x="342.5" y="631.26"/><ellipse cx="357.5" cy="651.5705" fill="#FEFECE" rx="11" ry="11" style="stroke:#181818;stroke-width:1.0;"/><path d="M358.8418,658.8205 L356.3931,658.8205 L356.3931,648.5691 L353.2471,648.5691 L353.2471,646.4275 L361.9878,646.4275 L361.9878,648.5691 L358.8418,648.5691 Z " fill="#000000"/><text fill="#000000" font-family="sans-serif" font-size="12" font-style="italic" lengthAdjust="spacing" textLength="35" x="455.5" y="647.8616">&#171;trait&#187;</text><text fill="#000000" font-family="sans-serif" font-size="14" font-style="italic" lengthAdjust="spacing" textLength="203" x="371.5" y="663.928">ConnectionOrientedTemplate</text><line style="stroke:#181818;stroke-width:0.5;" x1="343.5" x2="576.5" y1="671.8811" y2="671.8811"/><line style="stroke:#181818;stroke-width:0.5;" x1="343.5" x2="576.5" y1="679.8811" y2="679.8811"/></g><g id="elem_GMN34"><path d="M371.5,748.88 L371.5,789.5011 A0,0 0 0 0 371.5,789.5011 L548.5,789.5011 A0,0 0 0 0 548.5,789.5011 L548.5,758.88 L538.5,748.88 L464,748.88 L460,688.28 L456,748.88 L371.5,748.88 A0,0 0 0 0 371.5,748.88 " fill="#FEFFDD" style="stroke:#181818;stroke-width:0.5;"/><path d="M538.5,748.88 L538.5,758.88 L548.5,758.88 L538.5,748.88 " fill="#FEFFDD" style="stroke:#181818;stroke-width:0.5;"/><text fill="#000000" font-family="sans-serif" font-size="13" lengthAdjust="spacing" textLength="152" x="377.5" y="766.4484">JavaScript socket-based</text><text fill="#000000" font-family="sans-serif" font-size="13" lengthAdjust="spacing" textLength="99" x="377.5" y="781.7589">implementation</text></g><!--link Connection to ConnectionOrientedNetworking--><g id="link_Connection_ConnectionOrientedNetworking"><path codeLine="32" d="M358.42,335.37 C369.83,335.37 365.24,335.37 376.65,335.37 " fill="none" id="Connection-to-ConnectionOrientedNetworking" style="stroke:#181818;stroke-width:1.0;"/><ellipse cx="384.65" cy="335.37" fill="#FFFFFF" rx="8" ry="8" style="stroke:#181818;stroke-width:1.0;"/><line style="stroke:#181818;stroke-width:1.0;" x1="376.65" x2="392.65" y1="335.37" y2="335.37"/><line style="stroke:#181818;stroke-width:1.0;" x1="384.65" x2="384.65" y1="327.37" y2="343.37"/></g><!--reverse link ConnectionOrientedNetworking to ListenerRef--><g id="link_ConnectionOrientedNetworking_ListenerRef"><path codeLine="33" d="M879.49,335.37 C891.07,335.37 886.65,335.37 898.23,335.37 " fill="none" id="ConnectionOrientedNetworking-backto-ListenerRef" style="stroke:#181818;stroke-width:1.0;"/><ellipse cx="871.49" cy="335.37" fill="#FFFFFF" rx="8" ry="8" style="stroke:#181818;stroke-width:1.0;"/><line style="stroke:#181818;stroke-width:1.0;" x1="879.49" x2="863.49" y1="335.37" y2="335.37"/><line style="stroke:#181818;stroke-width:1.0;" x1="871.49" x2="871.49" y1="343.37" y2="327.37"/></g><!--reverse link ListenerRef to Listener--><g id="link_ListenerRef_Listener"><path codeLine="34" d="M1075.78,335.37 C1087.22,335.37 1082.67,335.37 1094.12,335.37 " fill="none" id="ListenerRef-backto-Listener" style="stroke:#181818;stroke-width:1.0;"/><ellipse cx="1067.78" cy="335.37" fill="#FFFFFF" rx="8" ry="8" style="stroke:#181818;stroke-width:1.0;"/><line style="stroke:#181818;stroke-width:1.0;" x1="1075.78" x2="1059.78" y1="335.37" y2="335.37"/><line style="stroke:#181818;stroke-width:1.0;" x1="1067.78" x2="1067.78" y1="343.37" y2="327.37"/></g><!--reverse link ConnectionOrientedNetworking to ConnectionOrientedTemplate--><g id="link_ConnectionOrientedNetworking_ConnectionOrientedTemplate"><path d="M446.201,403.3659 C392.191,423.2759 350.12,438.77 300.07,457.21 " fill="none" id="ConnectionOrientedNetworking-backto-ConnectionOrientedTemplate" style="stroke:#181818;stroke-width:1.0;"/><polygon fill="none" points="463.09,397.14,444.1257,397.7362,448.2763,408.9956,463.09,397.14" style="stroke:#181818;stroke-width:1.0;"/></g><!--reverse link ConnectionOrientedNetworking to ConnectionOrientedNetworkManager--><g id="link_ConnectionOrientedNetworking_ConnectionOrientedNetworkManager"><path d="M828.0321,402.8146 C907.0521,429.0646 978.51,452.8 1041.39,473.69 " fill="none" id="ConnectionOrientedNetworking-backto-ConnectionOrientedNetworkManager" style="stroke:#181818;stroke-width:1.0;"/><polygon fill="none" points="810.95,397.14,826.1406,408.5086,829.9237,397.1205,810.95,397.14" style="stroke:#181818;stroke-width:1.0;"/></g><!--link NeighborhoodResolver to ConnectionOrientedNetworkManager--><g id="link_NeighborhoodResolver_ConnectionOrientedNetworkManager"><path codeLine="67" d="M895.99,502.46 C926.08,502.46 939.23,502.46 968.61,502.46 " fill="none" id="NeighborhoodResolver-ConnectionOrientedNetworkManager" style="stroke:#181818;stroke-width:1.0;"/><polygon fill="#181818" points="889.99,502.46,898.99,506.46,894.99,502.46,898.99,498.46,889.99,502.46" style="stroke:#181818;stroke-width:1.0;"/><polygon fill="#181818" points="980.61,502.46,974.61,498.46,968.61,502.46,974.61,506.46,980.61,502.46" style="stroke:#181818;stroke-width:1.0;"/><text fill="#000000" font-family="sans-serif" font-size="13" lengthAdjust="spacing" textLength="55" x="907.75" y="496.0284">mixed in</text></g><!--reverse link NetworkManager to ConnectionOrientedNetworkManager--><g id="link_NetworkManager_ConnectionOrientedNetworkManager"><path codeLine="68" d="M1288.79,165.4838 C1292.19,228.4838 1289.19,317.56 1247,396.66 C1229.85,428.81 1198.48,455.42 1171.85,473.78 " fill="none" id="NetworkManager-backto-ConnectionOrientedNetworkManager" style="stroke:#181818;stroke-width:1.0;"/><polygon fill="none" points="1287.82,147.51,1282.7987,165.8072,1294.7813,165.1605,1287.82,147.51" style="stroke:#181818;stroke-width:1.0;"/></g><!--reverse link ConnectionOrientedTemplate to ConnectionOrientedTemplate--><g id="link_ConnectionOrientedTemplate_ConnectionOrientedTemplate"><path d="M175.2008,565.4363 C173.1208,592.3063 171.92,607.88 170.13,631.03 " fill="none" id="ConnectionOrientedTemplate-backto-ConnectionOrientedTemplate" style="stroke:#181818;stroke-width:1.0;"/><polygon fill="none" points="176.59,547.49,169.2187,564.9732,181.1829,565.8994,176.59,547.49" style="stroke:#181818;stroke-width:1.0;"/></g><!--reverse link ConnectionOrientedTemplate to ConnectionOrientedTemplate--><g id="link_ConnectionOrientedTemplate_ConnectionOrientedTemplate"><path d="M275.6059,556.4216 C323.9359,583.1916 368.33,607.79 410,630.87 " fill="none" id="ConnectionOrientedTemplate-backto-ConnectionOrientedTemplate-1" style="stroke:#181818;stroke-width:1.0;"/><polygon fill="none" points="259.86,547.7,272.6987,561.6703,278.5131,551.173,259.86,547.7" style="stroke:#181818;stroke-width:1.0;"/></g><!--SRC=[rLLBRzim3BxdLn3TOSawvxIJaURGDi4oh0yqtIv53xBCf6fiqP3ahCMM_pxPJcpPSrqNssKvEIH5VlpuqXiX4wPO348QL2l6SJ8nYWapdSBF0S0fuvkrebI6PnIHWaYi7qmGfPZfI8Me2lbUjBHEaCnpWdEInb7j1eF4kc9hX2DE2ezoxr25XKiqFqXjBfYqHWec4nZUVdmtdyrdPxCHv9XW3whu7KCM1yvnApWkGaUkKOR36BMsddoOFIMapDt1xdxaM2haABOu7FcmYEjckTMk1ZmKsYWHf0R30_vIfn-OgiJPxprGy8ZSm4AYkRLGTKtffB2utdvgrrnRIEsQpwIDP36sQsSoJCXo-uTsF1uxCflSuKzLY3EIqi8M9A-KG2iEzwKHSjsZB0wAYw842zcXl4fDGqkf6U8UlrzcOYiqJqsgyAx2TzzuAUGmgw6VqpOQahmfokjNIE1a2j-aSDnzjKL5YUe6LvM_NVdLoSQn5-7AU8vHttVWX2tVE3BNfBj8lKjIdugA_egAZ9WcfpmYRUV3OQRyv17JkWQw6JBQw_mgbxe1unmJymA0rkuyEEgTTf0jh-koBVgdrpKHjnWd4JFu8WfyiYX3tTq6tKC3FfmAoTJpEN8AMH1XznYLzZFPjA_QMP85hR8b3hJgIAmMgiosg7XD9wmAO_isIuXJ7DkEh1baBrUaOe-jfTrPWaD4Qy5B6qjJZggD-4kqI0DI3qJX3MgAjcyeV4wFww7QxN02Ispk-kgbT1xvBxXuQyVqF6zz-kRr7NE8yg7OJzDs8ds8nHE65dOrqlOqZvjGVtcUzsgiWSD5UHGVjx4dcR4hs3sC_sImd5iyBcxlk4Stv-qVa34Klw7_lto_sAS1clW6ZHSmRObh7mHMkmDbUxVoe_zlNjYMBRaIYVbhNdQ3tm00]--></g></svg>