<?xml version="1.0" encoding="us-ascii" standalone="no"?><svg xmlns="http://www.w3.org/2000/svg" xmlns:xlink="http://www.w3.org/1999/xlink" contentStyleType="text/css" height="956px" preserveAspectRatio="none" style="width:1431px;height:956px;background:#FFFFFF;" version="1.1" viewBox="0 0 1431 956" width="1431px" zoomAndPan="magnify"><defs/><g><!--cluster core--><g id="cluster_core"><path d="M1144.5,6 L1175.5,6 A3.75,3.75 0 0 1 1178,8.5 L1185,28.4883 L1421.5,28.4883 A2.5,2.5 0 0 1 1424,30.9883 L1424,160.59 A2.5,2.5 0 0 1 1421.5,163.09 L1144.5,163.09 A2.5,2.5 0 0 1 1142,160.59 L1142,8.5 A2.5,2.5 0 0 1 1144.5,6 " fill="none" style="stroke:#000000;stroke-width:1.5;"/><line style="stroke:#000000;stroke-width:1.5;" x1="1142" x2="1185" y1="28.4883" y2="28.4883"/><text fill="#000000" font-family="sans-serif" font-size="14" font-weight="bold" lengthAdjust="spacing" textLength="30" x="1146" y="21.5352">core</text></g><!--cluster distributed--><g id="cluster_distributed"><path d="M8.5,196.09 L89.5,196.09 A3.75,3.75 0 0 1 92,198.59 L99,218.5783 L1306.5,218.5783 A2.5,2.5 0 0 1 1309,221.0783 L1309,947.11 A2.5,2.5 0 0 1 1306.5,949.61 L8.5,949.61 A2.5,2.5 0 0 1 6,947.11 L6,198.59 A2.5,2.5 0 0 1 8.5,196.09 " fill="none" style="stroke:#000000;stroke-width:1.5;"/><line style="stroke:#000000;stroke-width:1.5;" x1="6" x2="99" y1="218.5783" y2="218.5783"/><text fill="#000000" font-family="sans-serif" font-size="14" font-weight="bold" lengthAdjust="spacing" textLength="80" x="10" y="211.6252">distributed</text></g><!--cluster shared--><g id="cluster_shared"><path d="M32.5,239.09 L81.5,239.09 A3.75,3.75 0 0 1 84,241.59 L91,261.5783 L1282.5,261.5783 A2.5,2.5 0 0 1 1285,264.0783 L1285,680.87 A2.5,2.5 0 0 1 1282.5,683.37 L32.5,683.37 A2.5,2.5 0 0 1 30,680.87 L30,241.59 A2.5,2.5 0 0 1 32.5,239.09 " fill="none" style="stroke:#000000;stroke-width:1.5;"/><line style="stroke:#000000;stroke-width:1.5;" x1="30" x2="91" y1="261.5783" y2="261.5783"/><text fill="#000000" font-family="sans-serif" font-size="14" font-weight="bold" lengthAdjust="spacing" textLength="48" x="34" y="254.6252">shared</text></g><!--cluster jvm-native--><g id="cluster_jvm-native"><path d="M767.5,716.37 L848.5,716.37 A3.75,3.75 0 0 1 851,718.87 L858,738.8583 L978.5,738.8583 A2.5,2.5 0 0 1 981,741.3583 L981,923.11 A2.5,2.5 0 0 1 978.5,925.61 L767.5,925.61 A2.5,2.5 0 0 1 765,923.11 L765,718.87 A2.5,2.5 0 0 1 767.5,716.37 " fill="none" style="stroke:#000000;stroke-width:1.5;"/><line style="stroke:#000000;stroke-width:1.5;" x1="765" x2="858" y1="738.8583" y2="738.8583"/><text fill="#000000" font-family="sans-serif" font-size="14" font-weight="bold" lengthAdjust="spacing" textLength="80" x="769" y="731.9052">jvm-native</text></g><!--cluster js--><g id="cluster_js"><path d="M1007.5,716.37 L1021.5,716.37 A3.75,3.75 0 0 1 1024,718.87 L1031,738.8583 L1210.5,738.8583 A2.5,2.5 0 0 1 1213,741.3583 L1213,923.11 A2.5,2.5 0 0 1 1210.5,925.61 L1007.5,925.61 A2.5,2.5 0 0 1 1005,923.11 L1005,718.87 A2.5,2.5 0 0 1 1007.5,716.37 " fill="none" style="stroke:#000000;stroke-width:1.5;"/><line style="stroke:#000000;stroke-width:1.5;" x1="1005" x2="1031" y1="738.8583" y2="738.8583"/><text fill="#000000" font-family="sans-serif" font-size="14" font-weight="bold" lengthAdjust="spacing" textLength="13" x="1009" y="731.9052">js</text></g><!--class NetworkManager--><g id="elem_NetworkManager"><rect codeLine="9" fill="#F1F1F1" height="106.0859" id="NetworkManager" rx="2.5" ry="2.5" style="stroke:#181818;stroke-width:0.5;" width="250" x="1158" y="41"/><ellipse cx="1220.25" cy="61.3105" fill="#FEFECE" rx="11" ry="11" style="stroke:#181818;stroke-width:1.0;"/><path d="M1221.5918,68.5605 L1219.1431,68.5605 L1219.1431,58.3091 L1215.9971,58.3091 L1215.9971,56.1675 L1224.7378,56.1675 L1224.7378,58.3091 L1221.5918,58.3091 Z " fill="#000000"/><text fill="#000000" font-family="sans-serif" font-size="12" font-style="italic" lengthAdjust="spacing" textLength="35" x="1281.75" y="57.6016">&#171;trait&#187;</text><text fill="#000000" font-family="sans-serif" font-size="14" font-style="italic" lengthAdjust="spacing" textLength="117" x="1240.75" y="73.668">NetworkManager</text><line style="stroke:#181818;stroke-width:0.5;" x1="1159" x2="1407" y1="81.6211" y2="81.6211"/><ellipse cx="1169" cy="95.3652" fill="none" rx="3" ry="3" style="stroke:#038048;stroke-width:1.0;"/><text fill="#000000" font-family="sans-serif" font-size="14" lengthAdjust="spacing" textLength="90" x="1178" y="99.1563">type DeviceId</text><line style="stroke:#181818;stroke-width:0.5;" x1="1159" x2="1407" y1="106.1094" y2="106.1094"/><ellipse cx="1169" cy="119.8535" fill="#84BE84" rx="3" ry="3" style="stroke:#038048;stroke-width:1.0;"/><text fill="#000000" font-family="sans-serif" font-size="14" lengthAdjust="spacing" textLength="224" x="1178" y="123.6445">send(message: Export[DeviceId])</text><ellipse cx="1169" cy="136.3418" fill="#84BE84" rx="3" ry="3" style="stroke:#038048;stroke-width:1.0;"/><text fill="#000000" font-family="sans-serif" font-size="14" lengthAdjust="spacing" textLength="179" x="1178" y="140.1328">receive(): Import[DeviceId]</text></g><!--class ConnectionOrientedNetworking--><g id="elem_ConnectionOrientedNetworking"><rect codeLine="26" fill="#F1F1F1" height="122.5742" id="ConnectionOrientedNetworking" rx="2.5" ry="2.5" style="stroke:#181818;stroke-width:0.5;" width="470" x="393" y="274.09"/><ellipse cx="514.75" cy="294.4005" fill="#FEFECE" rx="11" ry="11" style="stroke:#181818;stroke-width:1.0;"/><path d="M516.0918,301.6505 L513.6431,301.6505 L513.6431,291.3991 L510.4971,291.3991 L510.4971,289.2575 L519.2378,289.2575 L519.2378,291.3991 L516.0918,291.3991 Z " fill="#000000"/><text fill="#000000" font-family="sans-serif" font-size="12" font-style="italic" lengthAdjust="spacing" textLength="35" x="626.75" y="290.6916">&#171;trait&#187;</text><text fill="#000000" font-family="sans-serif" font-size="14" font-style="italic" lengthAdjust="spacing" textLength="218" x="535.25" y="306.758">ConnectionOrientedNetworking</text><line style="stroke:#181818;stroke-width:0.5;" x1="394" x2="862" y1="314.7111" y2="314.7111"/><ellipse cx="404" cy="328.4552" fill="none" rx="3" ry="3" style="stroke:#038048;stroke-width:1.0;"/><text fill="#000000" font-family="sans-serif" font-size="14" lengthAdjust="spacing" textLength="105" x="413" y="332.2463">type MessageIn</text><ellipse cx="404" cy="344.9435" fill="none" rx="3" ry="3" style="stroke:#038048;stroke-width:1.0;"/><text fill="#000000" font-family="sans-serif" font-size="14" lengthAdjust="spacing" textLength="117" x="413" y="348.7345">type MessageOut</text><line style="stroke:#181818;stroke-width:0.5;" x1="394" x2="862" y1="355.6877" y2="355.6877"/><ellipse cx="404" cy="369.4318" fill="#84BE84" rx="3" ry="3" style="stroke:#038048;stroke-width:1.0;"/><text fill="#000000" font-family="sans-serif" font-size="14" lengthAdjust="spacing" textLength="307" x="413" y="373.2228">out(endpoint: Endpoint): Future[Connection]</text><ellipse cx="404" cy="385.9201" fill="#84BE84" rx="3" ry="3" style="stroke:#038048;stroke-width:1.0;"/><text fill="#000000" font-family="sans-serif" font-size="14" lengthAdjust="spacing" textLength="444" x="413" y="389.7111">in(port: Port)(onReceive: MessageIn =&gt; Unit): Future[ListenerRef]</text></g><!--class Connection--><g id="elem_Connection"><rect codeLine="36" fill="#F1F1F1" height="89.5977" id="Connection" rx="2.5" ry="2.5" style="stroke:#181818;stroke-width:0.5;" width="312" x="46" y="290.57"/><ellipse cx="158.25" cy="310.8805" fill="#FEFECE" rx="11" ry="11" style="stroke:#181818;stroke-width:1.0;"/><path d="M159.5918,318.1305 L157.1431,318.1305 L157.1431,307.8791 L153.9971,307.8791 L153.9971,305.7375 L162.7378,305.7375 L162.7378,307.8791 L159.5918,307.8791 Z " fill="#000000"/><text fill="#000000" font-family="sans-serif" font-size="12" font-style="italic" lengthAdjust="spacing" textLength="35" x="200.75" y="307.1716">&#171;trait&#187;</text><text fill="#000000" font-family="sans-serif" font-size="14" font-style="italic" lengthAdjust="spacing" textLength="79" x="178.75" y="323.238">Connection</text><line style="stroke:#181818;stroke-width:0.5;" x1="47" x2="357" y1="331.1911" y2="331.1911"/><line style="stroke:#181818;stroke-width:0.5;" x1="47" x2="357" y1="339.1911" y2="339.1911"/><ellipse cx="57" cy="352.9352" fill="#84BE84" rx="3" ry="3" style="stroke:#038048;stroke-width:1.0;"/><text fill="#000000" font-family="sans-serif" font-size="14" lengthAdjust="spacing" textLength="286" x="66" y="356.7263">send(message: MessageOut): Future[Unit]</text><ellipse cx="57" cy="369.4235" fill="#84BE84" rx="3" ry="3" style="stroke:#038048;stroke-width:1.0;"/><text fill="#000000" font-family="sans-serif" font-size="14" lengthAdjust="spacing" textLength="45" x="66" y="373.2145">close()</text></g><!--class ListenerRef--><g id="elem_ListenerRef"><rect codeLine="41" fill="#F1F1F1" height="80.9766" id="ListenerRef" rx="2.5" ry="2.5" style="stroke:#181818;stroke-width:0.5;" width="161" x="898.5" y="294.89"/><ellipse cx="937.35" cy="310.89" fill="#ADD1B2" rx="11" ry="11" style="stroke:#181818;stroke-width:1.0;"/><path d="M939.8231,317.0331 Q939.2421,317.3319 938.6029,317.4813 Q937.9638,317.6307 937.2582,317.6307 Q934.7514,317.6307 933.4315,315.9789 Q932.1117,314.327 932.1117,311.2059 Q932.1117,308.0765 933.4315,306.4247 Q934.7514,304.7728 937.2582,304.7728 Q937.9638,304.7728 938.6112,304.9222 Q939.2587,305.0716 939.8231,305.3705 L939.8231,308.0931 Q939.1923,307.5121 938.5988,307.2423 Q938.0053,306.9725 937.3744,306.9725 Q936.0297,306.9725 935.3449,308.0392 Q934.6601,309.1058 934.6601,311.2059 Q934.6601,313.2977 935.3449,314.3644 Q936.0297,315.431 937.3744,315.431 Q938.0053,315.431 938.5988,315.1612 Q939.1923,314.8915 939.8231,314.3104 Z " fill="#000000"/><text fill="#000000" font-family="sans-serif" font-size="14" lengthAdjust="spacing" textLength="76" x="956.65" y="316.181">ListenerRef</text><line style="stroke:#181818;stroke-width:0.5;" x1="899.5" x2="1058.5" y1="326.89" y2="326.89"/><ellipse cx="909.5" cy="340.6341" fill="none" rx="3" ry="3" style="stroke:#038048;stroke-width:1.0;"/><text fill="#000000" font-family="sans-serif" font-size="14" lengthAdjust="spacing" textLength="113" x="918.5" y="344.4252">listener: Listener</text><ellipse cx="909.5" cy="357.1224" fill="none" rx="3" ry="3" style="stroke:#038048;stroke-width:1.0;"/><text fill="#000000" font-family="sans-serif" font-size="14" lengthAdjust="spacing" textLength="135" x="918.5" y="360.9134">accept: Future[Unit]</text><line style="stroke:#181818;stroke-width:0.5;" x1="899.5" x2="1058.5" y1="367.8666" y2="367.8666"/></g><!--class Listener--><g id="elem_Listener"><rect codeLine="46" fill="#F1F1F1" height="89.5977" id="Listener" rx="2.5" ry="2.5" style="stroke:#181818;stroke-width:0.5;" width="135" x="1094.5" y="290.57"/><ellipse cx="1131.55" cy="310.8805" fill="#FEFECE" rx="11" ry="11" style="stroke:#181818;stroke-width:1.0;"/><path d="M1132.8918,318.1305 L1130.4431,318.1305 L1130.4431,307.8791 L1127.2971,307.8791 L1127.2971,305.7375 L1136.0378,305.7375 L1136.0378,307.8791 L1132.8918,307.8791 Z " fill="#000000"/><text fill="#000000" font-family="sans-serif" font-size="12" font-style="italic" lengthAdjust="spacing" textLength="35" x="1159.95" y="307.1716">&#171;trait&#187;</text><text fill="#000000" font-family="sans-serif" font-size="14" font-style="italic" lengthAdjust="spacing" textLength="54" x="1150.45" y="323.238">Listener</text><line style="stroke:#181818;stroke-width:0.5;" x1="1095.5" x2="1228.5" y1="331.1911" y2="331.1911"/><ellipse cx="1105.5" cy="344.9352" fill="none" rx="3" ry="3" style="stroke:#038048;stroke-width:1.0;"/><text fill="#000000" font-family="sans-serif" font-size="14" lengthAdjust="spacing" textLength="109" x="1114.5" y="348.7263">boundPort: Port</text><line style="stroke:#181818;stroke-width:0.5;" x1="1095.5" x2="1228.5" y1="355.6794" y2="355.6794"/><ellipse cx="1105.5" cy="369.4235" fill="#84BE84" rx="3" ry="3" style="stroke:#038048;stroke-width:1.0;"/><text fill="#000000" font-family="sans-serif" font-size="14" lengthAdjust="spacing" textLength="45" x="1114.5" y="373.2145">close()</text></g><!--class ConnectionOrientedTemplate--><g id="elem_ConnectionOrientedTemplate"><rect codeLine="51" fill="#F1F1F1" height="89.5977" id="ConnectionOrientedTemplate" rx="2.5" ry="2.5" style="stroke:#181818;stroke-width:0.5;" width="268" x="794" y="457.66"/><ellipse cx="823.85" cy="477.9705" fill="#FEFECE" rx="11" ry="11" style="stroke:#181818;stroke-width:1.0;"/><path d="M825.1918,485.2205 L822.7431,485.2205 L822.7431,474.9691 L819.5971,474.9691 L819.5971,472.8275 L828.3378,472.8275 L828.3378,474.9691 L825.1918,474.9691 Z " fill="#000000"/><text fill="#000000" font-family="sans-serif" font-size="12" font-style="italic" lengthAdjust="spacing" textLength="35" x="925.15" y="474.2616">&#171;trait&#187;</text><text fill="#000000" font-family="sans-serif" font-size="14" font-style="italic" lengthAdjust="spacing" textLength="203" x="841.15" y="490.328">ConnectionOrientedTemplate</text><line style="stroke:#181818;stroke-width:0.5;" x1="795" x2="1061" y1="498.2811" y2="498.2811"/><ellipse cx="805" cy="512.0252" fill="none" rx="3" ry="3" style="stroke:#038048;stroke-width:1.0;"/><text fill="#000000" font-family="sans-serif" font-size="14" lengthAdjust="spacing" textLength="231" x="814" y="515.8163">type MessageIn : BinaryDecodable</text><ellipse cx="805" cy="528.5135" fill="none" rx="3" ry="3" style="stroke:#038048;stroke-width:1.0;"/><text fill="#000000" font-family="sans-serif" font-size="14" lengthAdjust="spacing" textLength="242" x="814" y="532.3045">type MessageOut : BinaryEncodable</text><line style="stroke:#181818;stroke-width:0.5;" x1="795" x2="1061" y1="539.2577" y2="539.2577"/></g><g id="elem_GMN16"><path d="M1097,474.49 L1097,498.46 L1062.47,502.46 L1097,506.46 L1097,530.4216 A0,0 0 0 0 1097,530.4216 L1269,530.4216 A0,0 0 0 0 1269,530.4216 L1269,484.49 L1259,474.49 L1097,474.49 A0,0 0 0 0 1097,474.49 " fill="#FEFFDD" style="stroke:#181818;stroke-width:0.5;"/><path d="M1259,474.49 L1259,484.49 L1269,484.49 L1259,474.49 " fill="#FEFFDD" style="stroke:#181818;stroke-width:0.5;"/><text fill="#000000" font-family="sans-serif" font-size="13" lengthAdjust="spacing" textLength="94" x="1103" y="492.0584">Template class</text><text fill="#000000" font-family="sans-serif" font-size="13" lengthAdjust="spacing" textLength="146" x="1103" y="507.3689">implementing common</text><text fill="#000000" font-family="sans-serif" font-size="13" lengthAdjust="spacing" textLength="151" x="1103" y="522.6795">platform-agnostic logic</text></g><!--class NeighborhoodResolver--><g id="elem_NeighborhoodResolver"><rect codeLine="61" fill="#F1F1F1" height="89.5977" id="NeighborhoodResolver" rx="2.5" ry="2.5" style="stroke:#181818;stroke-width:0.5;" width="333" x="46.5" y="457.66"/><ellipse cx="129.75" cy="477.9705" fill="#FEFECE" rx="11" ry="11" style="stroke:#181818;stroke-width:1.0;"/><path d="M131.0918,485.2205 L128.6431,485.2205 L128.6431,474.9691 L125.4971,474.9691 L125.4971,472.8275 L134.2378,472.8275 L134.2378,474.9691 L131.0918,474.9691 Z " fill="#000000"/><text fill="#000000" font-family="sans-serif" font-size="12" font-style="italic" lengthAdjust="spacing" textLength="35" x="211.75" y="474.2616">&#171;trait&#187;</text><text fill="#000000" font-family="sans-serif" font-size="14" font-style="italic" lengthAdjust="spacing" textLength="158" x="150.25" y="490.328">NeighborhoodResolver</text><line style="stroke:#181818;stroke-width:0.5;" x1="47.5" x2="378.5" y1="498.2811" y2="498.2811"/><ellipse cx="57.5" cy="512.0252" fill="none" rx="3" ry="3" style="stroke:#038048;stroke-width:1.0;"/><text fill="#000000" font-family="sans-serif" font-size="14" lengthAdjust="spacing" textLength="307" x="66.5" y="515.8163">type Neighborhood[DeviceId] = Set[DeviceId]</text><ellipse cx="57.5" cy="528.5135" fill="none" rx="3" ry="3" style="stroke:#038048;stroke-width:1.0;"/><text fill="#000000" font-family="sans-serif" font-size="14" lengthAdjust="spacing" textLength="274" x="66.5" y="532.3045">neighborhood: Neighborhood[DeviceId]</text><line style="stroke:#181818;stroke-width:0.5;" x1="47.5" x2="378.5" y1="539.2577" y2="539.2577"/></g><!--class ConnectionOrientedNetworkManager--><g id="elem_ConnectionOrientedNetworkManager"><rect codeLine="66" fill="#F1F1F1" height="56.6211" id="ConnectionOrientedNetworkManager" rx="2.5" ry="2.5" style="stroke:#181818;stroke-width:0.5;" width="288" x="471" y="474.15"/><ellipse cx="486" cy="494.4605" fill="#FEFECE" rx="11" ry="11" style="stroke:#181818;stroke-width:1.0;"/><path d="M487.3418,501.7105 L484.8931,501.7105 L484.8931,491.4591 L481.7471,491.4591 L481.7471,489.3175 L490.4878,489.3175 L490.4878,491.4591 L487.3418,491.4591 Z " fill="#000000"/><text fill="#000000" font-family="sans-serif" font-size="12" font-style="italic" lengthAdjust="spacing" textLength="35" x="610.5" y="490.7516">&#171;trait&#187;</text><text fill="#000000" font-family="sans-serif" font-size="14" font-style="italic" lengthAdjust="spacing" textLength="256" x="500" y="506.818">ConnectionOrientedNetworkManager</text><line style="stroke:#181818;stroke-width:0.5;" x1="472" x2="758" y1="514.7711" y2="514.7711"/><line style="stroke:#181818;stroke-width:0.5;" x1="472" x2="758" y1="522.7711" y2="522.7711"/></g><g id="elem_SocketNetworkManager"><rect fill="#F1F1F1" height="59.1094" style="stroke:#181818;stroke-width:0.5;" width="716" x="176" y="608.26"/><text fill="#000000" font-family="sans-serif" font-size="12" font-style="italic" lengthAdjust="spacing" textLength="48" x="510" y="619.8616">&#171;object&#187;</text><text fill="#000000" font-family="sans-serif" font-size="14" lengthAdjust="spacing" textLength="162" x="453" y="637.928">SocketNetworkManager</text><line style="stroke:#181818;stroke-width:0.5;" x1="177" x2="891" y1="642.8811" y2="642.8811"/><ellipse cx="187" cy="656.6252" fill="#84BE84" rx="3" ry="3" style="stroke:#038048;stroke-width:1.0;"/><text fill="#000000" font-family="sans-serif" font-size="14" lengthAdjust="spacing" textLength="690" x="196" y="660.4163">withFixedNeighborhood[DeviceId](deviceId: DeviceId, port: Port, neighbors: Map[DeviceId, Endpoint])</text></g><!--class SocketNetworking--><g id="elem_SocketNetworking"><rect codeLine="77" fill="#F1F1F1" height="56.6211" id="SocketNetworking" rx="2.5" ry="2.5" style="stroke:#181818;stroke-width:0.5;" width="156" x="805" y="751.37"/><ellipse cx="820" cy="771.6805" fill="#FEFECE" rx="11" ry="11" style="stroke:#181818;stroke-width:1.0;"/><path d="M821.3418,778.9305 L818.8931,778.9305 L818.8931,768.6791 L815.7471,768.6791 L815.7471,766.5375 L824.4878,766.5375 L824.4878,768.6791 L821.3418,768.6791 Z " fill="#000000"/><text fill="#000000" font-family="sans-serif" font-size="12" font-style="italic" lengthAdjust="spacing" textLength="35" x="878.5" y="767.9716">&#171;trait&#187;</text><text fill="#000000" font-family="sans-serif" font-size="14" font-style="italic" lengthAdjust="spacing" textLength="124" x="834" y="784.038">SocketNetworking</text><line style="stroke:#181818;stroke-width:0.5;" x1="806" x2="960" y1="791.9911" y2="791.9911"/><line style="stroke:#181818;stroke-width:0.5;" x1="806" x2="960" y1="799.9911" y2="799.9911"/></g><g id="elem_GMN32"><path d="M780.5,868.99 L780.5,909.6111 A0,0 0 0 0 780.5,909.6111 L965.5,909.6111 A0,0 0 0 0 965.5,909.6111 L965.5,878.99 L955.5,868.99 L878.84,868.99 L880.42,808.39 L870.84,868.99 L780.5,868.99 A0,0 0 0 0 780.5,868.99 " fill="#FEFFDD" style="stroke:#181818;stroke-width:0.5;"/><path d="M955.5,868.99 L955.5,878.99 L965.5,878.99 L955.5,868.99 " fill="#FEFFDD" style="stroke:#181818;stroke-width:0.5;"/><text fill="#000000" font-family="sans-serif" font-size="13" lengthAdjust="spacing" textLength="160" x="786.5" y="886.5584">JVM-native socket-based</text><text fill="#000000" font-family="sans-serif" font-size="13" lengthAdjust="spacing" textLength="99" x="786.5" y="901.8689">implementation</text></g><!--class SocketNetworking--><g id="elem_SocketNetworking"><rect codeLine="86" fill="#F1F1F1" height="56.6211" id="SocketNetworking" rx="2.5" ry="2.5" style="stroke:#181818;stroke-width:0.5;" width="156" x="1026" y="751.37"/><ellipse cx="1041" cy="771.6805" fill="#FEFECE" rx="11" ry="11" style="stroke:#181818;stroke-width:1.0;"/><path d="M1042.3418,778.9305 L1039.8931,778.9305 L1039.8931,768.6791 L1036.7471,768.6791 L1036.7471,766.5375 L1045.4878,766.5375 L1045.4878,768.6791 L1042.3418,768.6791 Z " fill="#000000"/><text fill="#000000" font-family="sans-serif" font-size="12" font-style="italic" lengthAdjust="spacing" textLength="35" x="1099.5" y="767.9716">&#171;trait&#187;</text><text fill="#000000" font-family="sans-serif" font-size="14" font-style="italic" lengthAdjust="spacing" textLength="124" x="1055" y="784.038">SocketNetworking</text><line style="stroke:#181818;stroke-width:0.5;" x1="1027" x2="1181" y1="791.9911" y2="791.9911"/><line style="stroke:#181818;stroke-width:0.5;" x1="1027" x2="1181" y1="799.9911" y2="799.9911"/></g><g id="elem_GMN39"><path d="M1020.5,868.99 L1020.5,909.6111 A0,0 0 0 0 1020.5,909.6111 L1197.5,909.6111 A0,0 0 0 0 1197.5,909.6111 L1197.5,878.99 L1187.5,868.99 L1112.08,868.99 L1105.29,808.39 L1104.08,868.99 L1020.5,868.99 A0,0 0 0 0 1020.5,868.99 " fill="#FEFFDD" style="stroke:#181818;stroke-width:0.5;"/><path d="M1187.5,868.99 L1187.5,878.99 L1197.5,878.99 L1187.5,868.99 " fill="#FEFFDD" style="stroke:#181818;stroke-width:0.5;"/><text fill="#000000" font-family="sans-serif" font-size="13" lengthAdjust="spacing" textLength="152" x="1026.5" y="886.5584">JavaScript socket-based</text><text fill="#000000" font-family="sans-serif" font-size="13" lengthAdjust="spacing" textLength="99" x="1026.5" y="901.8689">implementation</text></g><!--link Connection to ConnectionOrientedNetworking--><g id="link_Connection_ConnectionOrientedNetworking"><path codeLine="32" d="M358.42,335.37 C369.83,335.37 365.24,335.37 376.65,335.37 " fill="none" id="Connection-to-ConnectionOrientedNetworking" style="stroke:#181818;stroke-width:1.0;"/><ellipse cx="384.65" cy="335.37" fill="#FFFFFF" rx="8" ry="8" style="stroke:#181818;stroke-width:1.0;"/><line style="stroke:#181818;stroke-width:1.0;" x1="376.65" x2="392.65" y1="335.37" y2="335.37"/><line style="stroke:#181818;stroke-width:1.0;" x1="384.65" x2="384.65" y1="327.37" y2="343.37"/></g><!--reverse link ConnectionOrientedNetworking to ListenerRef--><g id="link_ConnectionOrientedNetworking_ListenerRef"><path codeLine="33" d="M879.49,335.37 C891.07,335.37 886.65,335.37 898.23,335.37 " fill="none" id="ConnectionOrientedNetworking-backto-ListenerRef" style="stroke:#181818;stroke-width:1.0;"/><ellipse cx="871.49" cy="335.37" fill="#FFFFFF" rx="8" ry="8" style="stroke:#181818;stroke-width:1.0;"/><line style="stroke:#181818;stroke-width:1.0;" x1="879.49" x2="863.49" y1="335.37" y2="335.37"/><line style="stroke:#181818;stroke-width:1.0;" x1="871.49" x2="871.49" y1="343.37" y2="327.37"/></g><!--reverse link ListenerRef to Listener--><g id="link_ListenerRef_Listener"><path codeLine="34" d="M1075.78,335.37 C1087.22,335.37 1082.67,335.37 1094.12,335.37 " fill="none" id="ListenerRef-backto-Listener" style="stroke:#181818;stroke-width:1.0;"/><ellipse cx="1067.78" cy="335.37" fill="#FFFFFF" rx="8" ry="8" style="stroke:#181818;stroke-width:1.0;"/><line style="stroke:#181818;stroke-width:1.0;" x1="1075.78" x2="1059.78" y1="335.37" y2="335.37"/><line style="stroke:#181818;stroke-width:1.0;" x1="1067.78" x2="1067.78" y1="343.37" y2="327.37"/></g><!--reverse link ConnectionOrientedNetworking to ConnectionOrientedTemplate--><g id="link_ConnectionOrientedNetworking_ConnectionOrientedTemplate"><path d="M754.2006,405.8169 C790.4606,425.7669 814.26,438.87 847.83,457.34 " fill="none" id="ConnectionOrientedNetworking-backto-ConnectionOrientedTemplate" style="stroke:#181818;stroke-width:1.0;"/><polygon fill="none" points="738.43,397.14,751.3083,411.0737,757.0929,400.56,738.43,397.14" style="stroke:#181818;stroke-width:1.0;"/></g><!--reverse link ConnectionOrientedNetworking to ConnectionOrientedNetworkManager--><g id="link_ConnectionOrientedNetworking_ConnectionOrientedNetworkManager"><path d="M621.8187,414.8546 C619.7487,441.1746 618.83,452.77 617.18,473.71 " fill="none" id="ConnectionOrientedNetworking-backto-ConnectionOrientedNetworkManager" style="stroke:#181818;stroke-width:1.0;"/><polygon fill="none" points="623.23,396.91,615.8372,414.3842,627.8002,415.325,623.23,396.91" style="stroke:#181818;stroke-width:1.0;"/></g><!--link NeighborhoodResolver to ConnectionOrientedNetworkManager--><g id="link_NeighborhoodResolver_ConnectionOrientedNetworkManager"><path codeLine="67" d="M385.99,502.46 C416.08,502.46 429.23,502.46 458.61,502.46 " fill="none" id="NeighborhoodResolver-ConnectionOrientedNetworkManager" style="stroke:#181818;stroke-width:1.0;"/><polygon fill="#181818" points="379.99,502.46,388.99,506.46,384.99,502.46,388.99,498.46,379.99,502.46" style="stroke:#181818;stroke-width:1.0;"/><polygon fill="#181818" points="470.61,502.46,464.61,498.46,458.61,502.46,464.61,506.46,470.61,502.46" style="stroke:#181818;stroke-width:1.0;"/><text fill="#000000" font-family="sans-serif" font-size="13" lengthAdjust="spacing" textLength="55" x="397.75" y="496.0284">mixed in</text></g><!--reverse link NetworkManager to ConnectionOrientedNetworkManager--><g id="link_NetworkManager_ConnectionOrientedNetworkManager"><path codeLine="68" d="M1296.9278,165.1701 C1307.8178,232.6501 1311.74,331.26 1247,396.66 C1172.91,471.52 880.29,437.09 777,457.66 C754.86,462.07 731.27,467.82 709.15,473.7 " fill="none" id="NetworkManager-backto-ConnectionOrientedNetworkManager" style="stroke:#181818;stroke-width:1.0;"/><polygon fill="none" points="1294.06,147.4,1291.0044,166.126,1302.8511,164.2142,1294.06,147.4" style="stroke:#181818;stroke-width:1.0;"/></g><!--reverse link ConnectionOrientedNetworkManager to SocketNetworkManager--><g id="link_ConnectionOrientedNetworkManager_SocketNetworkManager"><path codeLine="73" d="M595.1042,536.2175 C581.4742,558.6475 565.44,585.05 551.6,607.83 " fill="none" id="ConnectionOrientedNetworkManager-backto-SocketNetworkManager" style="stroke:#181818;stroke-width:1.0;stroke-dasharray:7.0,7.0;"/><polygon fill="#181818" points="598.22,531.09,590.1279,536.7041,595.6235,535.3629,596.9646,540.8585,598.22,531.09" style="stroke:#181818;stroke-width:1.0;"/></g><!--reverse link ConnectionOrientedTemplate to SocketNetworking--><g id="link_ConnectionOrientedTemplate_SocketNetworking"><path codeLine="78" d="M924.7836,565.4353 C922.4036,603.7353 918.63,642.63 909,691.37 C904.98,711.69 898.27,734.08 892.67,751.1 " fill="none" id="ConnectionOrientedTemplate-backto-SocketNetworking" style="stroke:#181818;stroke-width:1.0;"/><polygon fill="none" points="925.9,547.47,918.7952,565.0632,930.7721,565.8075,925.9,547.47" style="stroke:#181818;stroke-width:1.0;"/></g><!--reverse link ConnectionOrientedTemplate to SocketNetworking--><g id="link_ConnectionOrientedTemplate_SocketNetworking"><path codeLine="87" d="M965.9775,562.8444 C1002.6075,620.1244 1055.69,703.13 1086.25,750.92 " fill="none" id="ConnectionOrientedTemplate-backto-SocketNetworking-1" style="stroke:#181818;stroke-width:1.0;"/><polygon fill="none" points="956.28,547.68,960.9227,566.0769,971.0323,559.6119,956.28,547.68" style="stroke:#181818;stroke-width:1.0;"/></g><!--SRC=[pLPBKzim4BxdL-pGGvE2VUh90pa0oJITyXX2Us4uoF8c4R4bZoG7c9B_NjbnBDaOOuPBStAq3ttxxKjgpNXA94c0SOroGIWU7sj9c1wFuUy0u9JGzLAAZ4Td8XOIOhPSwJ3EC9S96Q7SdPT7S-C4XNvESIguTaJRmI0rhiWIuO0AYGU5Tx3NmYNgHo7N5uGR9Gd7np2yFVeodKmdPvCH59YW1BNx7K9-3vpZXb6SHSwvGXuD4rJAU0fWyfGAgU_sUlSZHrCYHRR1uIY0ML9NAxIsDU0HKrgoCDCOxV5NChKYqXxdlwyWmWUa6cOSzQs1gcf29uJPzUPxk-JQG6gN_11ASv9WktJ2erGORbz9VTztpanm-pys4MU2SmER2Nub6PhZg4mDuyiUQN5GNEnICECTmgjCDwGYqqCiyGTL92P3qqnd4kyillk69UF3F8T1GTjeAFZDBhs1HG8dO_ZDcUFkbqagSfGtkB3-jjLN9nk7NemBxJbAVUt0kRQoSSvSbUuazKv9lIii_PQAd9WcfpGMolI7mqprIMEYL0rqyygub0Ksbhe2eHHJ_GQ0rkhSE-eTTfWFh-kgBFg7rzKHjvYaCT7u9WfyCYWZrLq6tKq30PmoJkJpEL8HaJ36xZQgz2UygM_BcGi3MkP37CIY8x3QLLMqkupNPCo8C36sUK1K98cfo9f2RhaGCl78afkPnIZ4OibefMDeAb2r4N-91caev4g8w0QLY3SVI7n1Z-l1pdOuWJasPxsrv8vHy8QBZrPCp_NMfsxUdp7xMxxjvjEudSW04lQ4aO5jMzgiPhy9zSNpl7VliYoKMsykw1hrgx1tqfPqFJAzckPuslaUHkLNK6ty8x3J_gXAcZApZQHtLcc_GUv7BVtGYjBFKd_yViHEzgjdmCCcyJZHPkcuJm5R6BNxEXPgEy3SmFEor7iPW_COyNUF3xz7EnVz7mgjHP8FWARtMav-_haeOm5Lw7aXKQPUslkVrDPVrTMj9AdFaGF_1JjaG-PKibH_cftju1y0]--></g></svg>