<?xml version="1.0" encoding="us-ascii" standalone="no"?><svg xmlns="http://www.w3.org/2000/svg" xmlns:xlink="http://www.w3.org/1999/xlink" contentStyleType="text/css" height="941px" preserveAspectRatio="none" style="width:1572px;height:941px;background:#FFFFFF;" version="1.1" viewBox="0 0 1572 941" width="1572px" zoomAndPan="magnify"><defs/><g><!--cluster core--><g id="cluster_core"><path d="M1285.5,6 L1316.5,6 A3.75,3.75 0 0 1 1319,8.5 L1326,28.4883 L1562.5,28.4883 A2.5,2.5 0 0 1 1565,30.9883 L1565,160.59 A2.5,2.5 0 0 1 1562.5,163.09 L1285.5,163.09 A2.5,2.5 0 0 1 1283,160.59 L1283,8.5 A2.5,2.5 0 0 1 1285.5,6 " fill="none" style="stroke:#000000;stroke-width:1.5;"/><line style="stroke:#000000;stroke-width:1.5;" x1="1283" x2="1326" y1="28.4883" y2="28.4883"/><text fill="#000000" font-family="sans-serif" font-size="14" font-weight="bold" lengthAdjust="spacing" textLength="30" x="1287" y="21.5352">core</text></g><!--cluster distributed--><g id="cluster_distributed"><path d="M8.5,196.09 L89.5,196.09 A3.75,3.75 0 0 1 92,198.59 L99,218.5783 L1384.5,218.5783 A2.5,2.5 0 0 1 1387,221.0783 L1387,931.8 A2.5,2.5 0 0 1 1384.5,934.3 L8.5,934.3 A2.5,2.5 0 0 1 6,931.8 L6,198.59 A2.5,2.5 0 0 1 8.5,196.09 " fill="none" style="stroke:#000000;stroke-width:1.5;"/><line style="stroke:#000000;stroke-width:1.5;" x1="6" x2="99" y1="218.5783" y2="218.5783"/><text fill="#000000" font-family="sans-serif" font-size="14" font-weight="bold" lengthAdjust="spacing" textLength="80" x="10" y="211.6252">distributed</text></g><!--cluster shared--><g id="cluster_shared"><path d="M32.5,239.09 L81.5,239.09 A3.75,3.75 0 0 1 84,241.59 L91,261.5783 L1282.5,261.5783 A2.5,2.5 0 0 1 1285,264.0783 L1285,680.87 A2.5,2.5 0 0 1 1282.5,683.37 L32.5,683.37 A2.5,2.5 0 0 1 30,680.87 L30,241.59 A2.5,2.5 0 0 1 32.5,239.09 " fill="none" style="stroke:#000000;stroke-width:1.5;"/><line style="stroke:#000000;stroke-width:1.5;" x1="30" x2="91" y1="261.5783" y2="261.5783"/><text fill="#000000" font-family="sans-serif" font-size="14" font-weight="bold" lengthAdjust="spacing" textLength="48" x="34" y="254.6252">shared</text></g><!--cluster jvm-native--><g id="cluster_jvm-native"><path d="M659.5,716.37 L740.5,716.37 A3.75,3.75 0 0 1 743,718.87 L750,738.8583 L970.5,738.8583 A2.5,2.5 0 0 1 973,741.3583 L973,907.8 A2.5,2.5 0 0 1 970.5,910.3 L659.5,910.3 A2.5,2.5 0 0 1 657,907.8 L657,718.87 A2.5,2.5 0 0 1 659.5,716.37 " fill="none" style="stroke:#000000;stroke-width:1.5;"/><line style="stroke:#000000;stroke-width:1.5;" x1="657" x2="750" y1="738.8583" y2="738.8583"/><text fill="#000000" font-family="sans-serif" font-size="14" font-weight="bold" lengthAdjust="spacing" textLength="80" x="661" y="731.9052">jvm-native</text></g><!--cluster js--><g id="cluster_js"><path d="M999.5,716.37 L1013.5,716.37 A3.75,3.75 0 0 1 1016,718.87 L1023,738.8583 L1302.5,738.8583 A2.5,2.5 0 0 1 1305,741.3583 L1305,907.8 A2.5,2.5 0 0 1 1302.5,910.3 L999.5,910.3 A2.5,2.5 0 0 1 997,907.8 L997,718.87 A2.5,2.5 0 0 1 999.5,716.37 " fill="none" style="stroke:#000000;stroke-width:1.5;"/><line style="stroke:#000000;stroke-width:1.5;" x1="997" x2="1023" y1="738.8583" y2="738.8583"/><text fill="#000000" font-family="sans-serif" font-size="14" font-weight="bold" lengthAdjust="spacing" textLength="13" x="1001" y="731.9052">js</text></g><!--class NetworkManager--><g id="elem_NetworkManager"><rect codeLine="9" fill="#F1F1F1" height="106.0859" id="NetworkManager" rx="2.5" ry="2.5" style="stroke:#181818;stroke-width:0.5;" width="250" x="1299" y="41"/><ellipse cx="1361.25" cy="61.3105" fill="#B2A7E0" rx="11" ry="11" style="stroke:#181818;stroke-width:1.0;"/><path d="M1362.5918,68.5605 L1360.1431,68.5605 L1360.1431,58.3091 L1356.9971,58.3091 L1356.9971,56.1675 L1365.7378,56.1675 L1365.7378,58.3091 L1362.5918,58.3091 Z " fill="#000000"/><text fill="#000000" font-family="sans-serif" font-size="12" font-style="italic" lengthAdjust="spacing" textLength="35" x="1422.75" y="57.6016">&#171;trait&#187;</text><text fill="#000000" font-family="sans-serif" font-size="14" font-style="italic" lengthAdjust="spacing" textLength="117" x="1381.75" y="73.668">NetworkManager</text><line style="stroke:#181818;stroke-width:0.5;" x1="1300" x2="1548" y1="81.6211" y2="81.6211"/><ellipse cx="1310" cy="95.3652" fill="none" rx="3" ry="3" style="stroke:#038048;stroke-width:1.0;"/><text fill="#000000" font-family="sans-serif" font-size="14" lengthAdjust="spacing" textLength="90" x="1319" y="99.1563">type DeviceId</text><line style="stroke:#181818;stroke-width:0.5;" x1="1300" x2="1548" y1="106.1094" y2="106.1094"/><ellipse cx="1310" cy="119.8535" fill="#84BE84" rx="3" ry="3" style="stroke:#038048;stroke-width:1.0;"/><text fill="#000000" font-family="sans-serif" font-size="14" lengthAdjust="spacing" textLength="224" x="1319" y="123.6445">send(message: Export[DeviceId])</text><ellipse cx="1310" cy="136.3418" fill="#84BE84" rx="3" ry="3" style="stroke:#038048;stroke-width:1.0;"/><text fill="#000000" font-family="sans-serif" font-size="14" lengthAdjust="spacing" textLength="179" x="1319" y="140.1328">receive(): Import[DeviceId]</text></g><!--class Pippo--><g id="elem_Pippo"><rect codeLine="96" fill="#F1F1F1" height="48" id="Pippo" rx="2.5" ry="2.5" style="stroke:#181818;stroke-width:0.5;" width="71" x="1300.5" y="311.37"/><ellipse cx="1315.5" cy="327.37" fill="#B4A7E5" rx="11" ry="11" style="stroke:#181818;stroke-width:1.0;"/><path d="M1311.9277,323.6351 L1311.9277,321.4769 L1319.3071,321.4769 L1319.3071,323.6351 L1316.8418,323.6351 L1316.8418,331.7118 L1319.3071,331.7118 L1319.3071,333.87 L1311.9277,333.87 L1311.9277,331.7118 L1314.3931,331.7118 L1314.3931,323.6351 Z " fill="#000000"/><text fill="#000000" font-family="sans-serif" font-size="14" font-style="italic" lengthAdjust="spacing" textLength="39" x="1329.5" y="332.661">Pippo</text><line style="stroke:#181818;stroke-width:0.5;" x1="1301.5" x2="1370.5" y1="343.37" y2="343.37"/><line style="stroke:#181818;stroke-width:0.5;" x1="1301.5" x2="1370.5" y1="351.37" y2="351.37"/></g><!--class ConnectionOrientedNetworking--><g id="elem_ConnectionOrientedNetworking"><rect codeLine="26" fill="#F1F1F1" height="122.5742" id="ConnectionOrientedNetworking" rx="2.5" ry="2.5" style="stroke:#181818;stroke-width:0.5;" width="470" x="411" y="274.09"/><ellipse cx="532.75" cy="294.4005" fill="#B2A7E0" rx="11" ry="11" style="stroke:#181818;stroke-width:1.0;"/><path d="M534.0918,301.6505 L531.6431,301.6505 L531.6431,291.3991 L528.4971,291.3991 L528.4971,289.2575 L537.2378,289.2575 L537.2378,291.3991 L534.0918,291.3991 Z " fill="#000000"/><text fill="#000000" font-family="sans-serif" font-size="12" font-style="italic" lengthAdjust="spacing" textLength="35" x="644.75" y="290.6916">&#171;trait&#187;</text><text fill="#000000" font-family="sans-serif" font-size="14" font-style="italic" lengthAdjust="spacing" textLength="218" x="553.25" y="306.758">ConnectionOrientedNetworking</text><line style="stroke:#181818;stroke-width:0.5;" x1="412" x2="880" y1="314.7111" y2="314.7111"/><ellipse cx="422" cy="328.4552" fill="none" rx="3" ry="3" style="stroke:#038048;stroke-width:1.0;"/><text fill="#000000" font-family="sans-serif" font-size="14" lengthAdjust="spacing" textLength="105" x="431" y="332.2462">type MessageIn</text><ellipse cx="422" cy="344.9435" fill="none" rx="3" ry="3" style="stroke:#038048;stroke-width:1.0;"/><text fill="#000000" font-family="sans-serif" font-size="14" lengthAdjust="spacing" textLength="117" x="431" y="348.7345">type MessageOut</text><line style="stroke:#181818;stroke-width:0.5;" x1="412" x2="880" y1="355.6877" y2="355.6877"/><ellipse cx="422" cy="369.4318" fill="#84BE84" rx="3" ry="3" style="stroke:#038048;stroke-width:1.0;"/><text fill="#000000" font-family="sans-serif" font-size="14" lengthAdjust="spacing" textLength="307" x="431" y="373.2228">out(endpoint: Endpoint): Future[Connection]</text><ellipse cx="422" cy="385.9201" fill="#84BE84" rx="3" ry="3" style="stroke:#038048;stroke-width:1.0;"/><text fill="#000000" font-family="sans-serif" font-size="14" lengthAdjust="spacing" textLength="444" x="431" y="389.7111">in(port: Port)(onReceive: MessageIn =&gt; Unit): Future[ListenerRef]</text></g><!--class Connection--><g id="elem_Connection"><rect codeLine="36" fill="#F1F1F1" height="89.5977" id="Connection" rx="2.5" ry="2.5" style="stroke:#181818;stroke-width:0.5;" width="312" x="64" y="290.58"/><ellipse cx="176.25" cy="310.8905" fill="#B2A7E0" rx="11" ry="11" style="stroke:#181818;stroke-width:1.0;"/><path d="M177.5918,318.1405 L175.1431,318.1405 L175.1431,307.8891 L171.9971,307.8891 L171.9971,305.7475 L180.7378,305.7475 L180.7378,307.8891 L177.5918,307.8891 Z " fill="#000000"/><text fill="#000000" font-family="sans-serif" font-size="12" font-style="italic" lengthAdjust="spacing" textLength="35" x="218.75" y="307.1816">&#171;trait&#187;</text><text fill="#000000" font-family="sans-serif" font-size="14" font-style="italic" lengthAdjust="spacing" textLength="79" x="196.75" y="323.248">Connection</text><line style="stroke:#181818;stroke-width:0.5;" x1="65" x2="375" y1="331.2011" y2="331.2011"/><line style="stroke:#181818;stroke-width:0.5;" x1="65" x2="375" y1="339.2011" y2="339.2011"/><ellipse cx="75" cy="352.9452" fill="#84BE84" rx="3" ry="3" style="stroke:#038048;stroke-width:1.0;"/><text fill="#000000" font-family="sans-serif" font-size="14" lengthAdjust="spacing" textLength="286" x="84" y="356.7362">send(message: MessageOut): Future[Unit]</text><ellipse cx="75" cy="369.4335" fill="#84BE84" rx="3" ry="3" style="stroke:#038048;stroke-width:1.0;"/><text fill="#000000" font-family="sans-serif" font-size="14" lengthAdjust="spacing" textLength="45" x="84" y="373.2245">close()</text></g><!--class ListenerRef--><g id="elem_ListenerRef"><rect codeLine="41" fill="#F1F1F1" height="80.9766" id="ListenerRef" rx="2.5" ry="2.5" style="stroke:#181818;stroke-width:0.5;" width="161" x="916.5" y="294.89"/><ellipse cx="955.35" cy="310.89" fill="#ADD1B2" rx="11" ry="11" style="stroke:#181818;stroke-width:1.0;"/><path d="M957.8231,317.0331 Q957.2421,317.3319 956.6029,317.4813 Q955.9638,317.6307 955.2582,317.6307 Q952.7514,317.6307 951.4315,315.9789 Q950.1117,314.327 950.1117,311.2059 Q950.1117,308.0765 951.4315,306.4247 Q952.7514,304.7728 955.2582,304.7728 Q955.9638,304.7728 956.6112,304.9222 Q957.2587,305.0716 957.8231,305.3705 L957.8231,308.0931 Q957.1923,307.5121 956.5988,307.2423 Q956.0053,306.9725 955.3744,306.9725 Q954.0297,306.9725 953.3449,308.0392 Q952.6601,309.1058 952.6601,311.2059 Q952.6601,313.2977 953.3449,314.3644 Q954.0297,315.431 955.3744,315.431 Q956.0053,315.431 956.5988,315.1612 Q957.1923,314.8915 957.8231,314.3104 Z " fill="#000000"/><text fill="#000000" font-family="sans-serif" font-size="14" lengthAdjust="spacing" textLength="76" x="974.65" y="316.181">ListenerRef</text><line style="stroke:#181818;stroke-width:0.5;" x1="917.5" x2="1076.5" y1="326.89" y2="326.89"/><ellipse cx="927.5" cy="340.6341" fill="none" rx="3" ry="3" style="stroke:#038048;stroke-width:1.0;"/><text fill="#000000" font-family="sans-serif" font-size="14" lengthAdjust="spacing" textLength="113" x="936.5" y="344.4252">listener: Listener</text><ellipse cx="927.5" cy="357.1224" fill="none" rx="3" ry="3" style="stroke:#038048;stroke-width:1.0;"/><text fill="#000000" font-family="sans-serif" font-size="14" lengthAdjust="spacing" textLength="135" x="936.5" y="360.9134">accept: Future[Unit]</text><line style="stroke:#181818;stroke-width:0.5;" x1="917.5" x2="1076.5" y1="367.8666" y2="367.8666"/></g><!--class Listener--><g id="elem_Listener"><rect codeLine="46" fill="#F1F1F1" height="89.5977" id="Listener" rx="2.5" ry="2.5" style="stroke:#181818;stroke-width:0.5;" width="135" x="1112.5" y="290.58"/><ellipse cx="1149.55" cy="310.8905" fill="#B2A7E0" rx="11" ry="11" style="stroke:#181818;stroke-width:1.0;"/><path d="M1150.8918,318.1405 L1148.4431,318.1405 L1148.4431,307.8891 L1145.2971,307.8891 L1145.2971,305.7475 L1154.0378,305.7475 L1154.0378,307.8891 L1150.8918,307.8891 Z " fill="#000000"/><text fill="#000000" font-family="sans-serif" font-size="12" font-style="italic" lengthAdjust="spacing" textLength="35" x="1177.95" y="307.1816">&#171;trait&#187;</text><text fill="#000000" font-family="sans-serif" font-size="14" font-style="italic" lengthAdjust="spacing" textLength="54" x="1168.45" y="323.248">Listener</text><line style="stroke:#181818;stroke-width:0.5;" x1="1113.5" x2="1246.5" y1="331.2011" y2="331.2011"/><ellipse cx="1123.5" cy="344.9452" fill="none" rx="3" ry="3" style="stroke:#038048;stroke-width:1.0;"/><text fill="#000000" font-family="sans-serif" font-size="14" lengthAdjust="spacing" textLength="109" x="1132.5" y="348.7362">boundPort: Port</text><line style="stroke:#181818;stroke-width:0.5;" x1="1113.5" x2="1246.5" y1="355.6894" y2="355.6894"/><ellipse cx="1123.5" cy="369.4335" fill="#84BE84" rx="3" ry="3" style="stroke:#038048;stroke-width:1.0;"/><text fill="#000000" font-family="sans-serif" font-size="14" lengthAdjust="spacing" textLength="45" x="1132.5" y="373.2245">close()</text></g><!--class ConnectionOrientedTemplate--><g id="elem_ConnectionOrientedTemplate"><rect codeLine="51" fill="#F1F1F1" height="89.5977" id="ConnectionOrientedTemplate" rx="2.5" ry="2.5" style="stroke:#181818;stroke-width:0.5;" width="268" x="794" y="457.66"/><ellipse cx="823.85" cy="477.9705" fill="#B2A7E0" rx="11" ry="11" style="stroke:#181818;stroke-width:1.0;"/><path d="M825.1918,485.2205 L822.7431,485.2205 L822.7431,474.9691 L819.5971,474.9691 L819.5971,472.8275 L828.3378,472.8275 L828.3378,474.9691 L825.1918,474.9691 Z " fill="#000000"/><text fill="#000000" font-family="sans-serif" font-size="12" font-style="italic" lengthAdjust="spacing" textLength="35" x="925.15" y="474.2616">&#171;trait&#187;</text><text fill="#000000" font-family="sans-serif" font-size="14" font-style="italic" lengthAdjust="spacing" textLength="203" x="841.15" y="490.328">ConnectionOrientedTemplate</text><line style="stroke:#181818;stroke-width:0.5;" x1="795" x2="1061" y1="498.2811" y2="498.2811"/><ellipse cx="805" cy="512.0252" fill="none" rx="3" ry="3" style="stroke:#038048;stroke-width:1.0;"/><text fill="#000000" font-family="sans-serif" font-size="14" lengthAdjust="spacing" textLength="231" x="814" y="515.8163">type MessageIn : BinaryDecodable</text><ellipse cx="805" cy="528.5135" fill="none" rx="3" ry="3" style="stroke:#038048;stroke-width:1.0;"/><text fill="#000000" font-family="sans-serif" font-size="14" lengthAdjust="spacing" textLength="242" x="814" y="532.3045">type MessageOut : BinaryEncodable</text><line style="stroke:#181818;stroke-width:0.5;" x1="795" x2="1061" y1="539.2577" y2="539.2577"/></g><g id="elem_GMN16"><path d="M1097,474.49 L1097,498.46 L1062.47,502.46 L1097,506.46 L1097,530.4216 A0,0 0 0 0 1097,530.4216 L1269,530.4216 A0,0 0 0 0 1269,530.4216 L1269,484.49 L1259,474.49 L1097,474.49 A0,0 0 0 0 1097,474.49 " fill="#FEFFDD" style="stroke:#181818;stroke-width:0.5;"/><path d="M1259,474.49 L1259,484.49 L1269,484.49 L1259,474.49 " fill="#FEFFDD" style="stroke:#181818;stroke-width:0.5;"/><text fill="#000000" font-family="sans-serif" font-size="13" lengthAdjust="spacing" textLength="94" x="1103" y="492.0584">Template class</text><text fill="#000000" font-family="sans-serif" font-size="13" lengthAdjust="spacing" textLength="146" x="1103" y="507.3689">implementing common</text><text fill="#000000" font-family="sans-serif" font-size="13" lengthAdjust="spacing" textLength="151" x="1103" y="522.6795">platform-agnostic logic</text></g><!--class NeighborhoodResolver--><g id="elem_NeighborhoodResolver"><rect codeLine="61" fill="#F1F1F1" height="89.5977" id="NeighborhoodResolver" rx="2.5" ry="2.5" style="stroke:#181818;stroke-width:0.5;" width="333" x="46.5" y="457.66"/><ellipse cx="129.75" cy="477.9705" fill="#B2A7E0" rx="11" ry="11" style="stroke:#181818;stroke-width:1.0;"/><path d="M131.0918,485.2205 L128.6431,485.2205 L128.6431,474.9691 L125.4971,474.9691 L125.4971,472.8275 L134.2378,472.8275 L134.2378,474.9691 L131.0918,474.9691 Z " fill="#000000"/><text fill="#000000" font-family="sans-serif" font-size="12" font-style="italic" lengthAdjust="spacing" textLength="35" x="211.75" y="474.2616">&#171;trait&#187;</text><text fill="#000000" font-family="sans-serif" font-size="14" font-style="italic" lengthAdjust="spacing" textLength="158" x="150.25" y="490.328">NeighborhoodResolver</text><line style="stroke:#181818;stroke-width:0.5;" x1="47.5" x2="378.5" y1="498.2811" y2="498.2811"/><ellipse cx="57.5" cy="512.0252" fill="none" rx="3" ry="3" style="stroke:#038048;stroke-width:1.0;"/><text fill="#000000" font-family="sans-serif" font-size="14" lengthAdjust="spacing" textLength="307" x="66.5" y="515.8163">type Neighborhood[DeviceId] = Set[DeviceId]</text><ellipse cx="57.5" cy="528.5135" fill="none" rx="3" ry="3" style="stroke:#038048;stroke-width:1.0;"/><text fill="#000000" font-family="sans-serif" font-size="14" lengthAdjust="spacing" textLength="274" x="66.5" y="532.3045">neighborhood: Neighborhood[DeviceId]</text><line style="stroke:#181818;stroke-width:0.5;" x1="47.5" x2="378.5" y1="539.2577" y2="539.2577"/></g><!--class ConnectionOrientedNetworkManager--><g id="elem_ConnectionOrientedNetworkManager"><rect codeLine="66" fill="#F1F1F1" height="56.6211" id="ConnectionOrientedNetworkManager" rx="2.5" ry="2.5" style="stroke:#181818;stroke-width:0.5;" width="288" x="471" y="474.15"/><ellipse cx="486" cy="494.4605" fill="#B2A7E0" rx="11" ry="11" style="stroke:#181818;stroke-width:1.0;"/><path d="M487.3418,501.7105 L484.8931,501.7105 L484.8931,491.4591 L481.7471,491.4591 L481.7471,489.3175 L490.4878,489.3175 L490.4878,491.4591 L487.3418,491.4591 Z " fill="#000000"/><text fill="#000000" font-family="sans-serif" font-size="12" font-style="italic" lengthAdjust="spacing" textLength="35" x="610.5" y="490.7516">&#171;trait&#187;</text><text fill="#000000" font-family="sans-serif" font-size="14" font-style="italic" lengthAdjust="spacing" textLength="256" x="500" y="506.818">ConnectionOrientedNetworkManager</text><line style="stroke:#181818;stroke-width:0.5;" x1="472" x2="758" y1="514.7711" y2="514.7711"/><line style="stroke:#181818;stroke-width:0.5;" x1="472" x2="758" y1="522.7711" y2="522.7711"/></g><g id="elem_SocketNetworkManager"><rect fill="#F1F1F1" height="59.1094" style="stroke:#181818;stroke-width:0.5;" width="716" x="244" y="608.26"/><text fill="#000000" font-family="sans-serif" font-size="12" font-style="italic" lengthAdjust="spacing" textLength="48" x="578" y="619.8616">&#171;object&#187;</text><text fill="#000000" font-family="sans-serif" font-size="14" lengthAdjust="spacing" textLength="162" x="521" y="637.928">SocketNetworkManager</text><line style="stroke:#181818;stroke-width:0.5;" x1="245" x2="959" y1="642.8811" y2="642.8811"/><ellipse cx="255" cy="656.6252" fill="#84BE84" rx="3" ry="3" style="stroke:#038048;stroke-width:1.0;"/><text fill="#000000" font-family="sans-serif" font-size="14" lengthAdjust="spacing" textLength="690" x="264" y="660.4163">withFixedNeighborhood[DeviceId](deviceId: DeviceId, port: Port, neighbors: Map[DeviceId, Endpoint])</text></g><g id="elem_GMN26"><path d="M46.5,617.5 L46.5,658.1211 A0,0 0 0 0 46.5,658.1211 L209.5,658.1211 A0,0 0 0 0 209.5,658.1211 L209.5,641.81 L243.63,637.81 L209.5,633.81 L209.5,627.5 L199.5,617.5 L46.5,617.5 A0,0 0 0 0 46.5,617.5 " fill="#FEFFDD" style="stroke:#181818;stroke-width:0.5;"/><path d="M199.5,617.5 L199.5,627.5 L209.5,627.5 L199.5,617.5 " fill="#FEFFDD" style="stroke:#181818;stroke-width:0.5;"/><text fill="#000000" font-family="sans-serif" font-size="13" lengthAdjust="spacing" textLength="142" x="52.5" y="635.0684">Socket-based network</text><text fill="#000000" font-family="sans-serif" font-size="13" lengthAdjust="spacing" textLength="131" x="52.5" y="650.3789">manager entry-point</text></g><!--class SocketNetworking--><g id="elem_SocketNetworking"><rect codeLine="81" fill="#F1F1F1" height="56.6211" id="SocketNetworking" rx="2.5" ry="2.5" style="stroke:#181818;stroke-width:0.5;" width="156" x="769" y="751.37"/><ellipse cx="784" cy="771.6805" fill="#B2A7E0" rx="11" ry="11" style="stroke:#181818;stroke-width:1.0;"/><path d="M785.3418,778.9305 L782.8931,778.9305 L782.8931,768.6791 L779.7471,768.6791 L779.7471,766.5375 L788.4878,766.5375 L788.4878,768.6791 L785.3418,768.6791 Z " fill="#000000"/><text fill="#000000" font-family="sans-serif" font-size="12" font-style="italic" lengthAdjust="spacing" textLength="35" x="842.5" y="767.9716">&#171;trait&#187;</text><text fill="#000000" font-family="sans-serif" font-size="14" font-style="italic" lengthAdjust="spacing" textLength="124" x="798" y="784.038">SocketNetworking</text><line style="stroke:#181818;stroke-width:0.5;" x1="770" x2="924" y1="791.9911" y2="791.9911"/><line style="stroke:#181818;stroke-width:0.5;" x1="770" x2="924" y1="799.9911" y2="799.9911"/></g><g id="elem_GMN35"><path d="M673,868.99 L673,894.3005 A0,0 0 0 0 673,894.3005 L957,894.3005 A0,0 0 0 0 957,894.3005 L957,878.99 L947,868.99 L822.87,868.99 L838.17,808.26 L814.87,868.99 L673,868.99 A0,0 0 0 0 673,868.99 " fill="#FEFFDD" style="stroke:#181818;stroke-width:0.5;"/><path d="M947,868.99 L947,878.99 L957,878.99 L947,868.99 " fill="#FEFFDD" style="stroke:#181818;stroke-width:0.5;"/><text fill="#000000" font-family="sans-serif" font-size="13" lengthAdjust="spacing" textLength="263" x="679" y="886.5584">JVM-native socket-based implementation</text></g><!--class SocketNetworking--><g id="elem_SocketNetworking"><rect codeLine="89" fill="#F1F1F1" height="56.6211" id="SocketNetworking" rx="2.5" ry="2.5" style="stroke:#181818;stroke-width:0.5;" width="156" x="1043" y="751.37"/><ellipse cx="1058" cy="771.6805" fill="#B2A7E0" rx="11" ry="11" style="stroke:#181818;stroke-width:1.0;"/><path d="M1059.3418,778.9305 L1056.8931,778.9305 L1056.8931,768.6791 L1053.7471,768.6791 L1053.7471,766.5375 L1062.4878,766.5375 L1062.4878,768.6791 L1059.3418,768.6791 Z " fill="#000000"/><text fill="#000000" font-family="sans-serif" font-size="12" font-style="italic" lengthAdjust="spacing" textLength="35" x="1116.5" y="767.9716">&#171;trait&#187;</text><text fill="#000000" font-family="sans-serif" font-size="14" font-style="italic" lengthAdjust="spacing" textLength="124" x="1072" y="784.038">SocketNetworking</text><line style="stroke:#181818;stroke-width:0.5;" x1="1044" x2="1198" y1="791.9911" y2="791.9911"/><line style="stroke:#181818;stroke-width:0.5;" x1="1044" x2="1198" y1="799.9911" y2="799.9911"/></g><g id="elem_GMN42"><path d="M1013,868.99 L1013,894.3005 A0,0 0 0 0 1013,894.3005 L1289,894.3005 A0,0 0 0 0 1289,894.3005 L1289,878.99 L1279,868.99 L1151.37,868.99 L1129.28,808.26 L1143.37,868.99 L1013,868.99 A0,0 0 0 0 1013,868.99 " fill="#FEFFDD" style="stroke:#181818;stroke-width:0.5;"/><path d="M1279,868.99 L1279,878.99 L1289,878.99 L1279,868.99 " fill="#FEFFDD" style="stroke:#181818;stroke-width:0.5;"/><text fill="#000000" font-family="sans-serif" font-size="13" lengthAdjust="spacing" textLength="255" x="1019" y="886.5584">JavaScript socket-based implementation</text></g><!--link Connection to ConnectionOrientedNetworking--><g id="link_Connection_ConnectionOrientedNetworking"><path codeLine="32" d="M376.42,335.37 C387.83,335.37 383.24,335.37 394.65,335.37 " fill="none" id="Connection-to-ConnectionOrientedNetworking" style="stroke:#181818;stroke-width:1.0;"/><ellipse cx="402.65" cy="335.37" fill="#FFFFFF" rx="8" ry="8" style="stroke:#181818;stroke-width:1.0;"/><line style="stroke:#181818;stroke-width:1.0;" x1="394.65" x2="410.65" y1="335.37" y2="335.37"/><line style="stroke:#181818;stroke-width:1.0;" x1="402.65" x2="402.65" y1="327.37" y2="343.37"/></g><!--reverse link ConnectionOrientedNetworking to ListenerRef--><g id="link_ConnectionOrientedNetworking_ListenerRef"><path codeLine="33" d="M897.49,335.37 C909.07,335.37 904.65,335.37 916.23,335.37 " fill="none" id="ConnectionOrientedNetworking-backto-ListenerRef" style="stroke:#181818;stroke-width:1.0;"/><ellipse cx="889.49" cy="335.37" fill="#FFFFFF" rx="8" ry="8" style="stroke:#181818;stroke-width:1.0;"/><line style="stroke:#181818;stroke-width:1.0;" x1="897.49" x2="881.49" y1="335.37" y2="335.37"/><line style="stroke:#181818;stroke-width:1.0;" x1="889.49" x2="889.49" y1="343.37" y2="327.37"/></g><!--reverse link ListenerRef to Listener--><g id="link_ListenerRef_Listener"><path codeLine="34" d="M1093.78,335.37 C1105.22,335.37 1100.67,335.37 1112.12,335.37 " fill="none" id="ListenerRef-backto-Listener" style="stroke:#181818;stroke-width:1.0;"/><ellipse cx="1085.78" cy="335.37" fill="#FFFFFF" rx="8" ry="8" style="stroke:#181818;stroke-width:1.0;"/><line style="stroke:#181818;stroke-width:1.0;" x1="1093.78" x2="1077.78" y1="335.37" y2="335.37"/><line style="stroke:#181818;stroke-width:1.0;" x1="1085.78" x2="1085.78" y1="343.37" y2="327.37"/></g><!--reverse link ConnectionOrientedNetworking to ConnectionOrientedTemplate--><g id="link_ConnectionOrientedNetworking_ConnectionOrientedTemplate"><path d="M765.343,406.2355 C799.413,426.1855 821.08,438.87 852.64,457.34 " fill="none" id="ConnectionOrientedNetworking-backto-ConnectionOrientedTemplate" style="stroke:#181818;stroke-width:1.0;"/><polygon fill="none" points="749.81,397.14,762.3111,411.4131,768.3748,401.0578,749.81,397.14" style="stroke:#181818;stroke-width:1.0;"/></g><!--reverse link ConnectionOrientedNetworking to ConnectionOrientedNetworkManager--><g id="link_ConnectionOrientedNetworking_ConnectionOrientedNetworkManager"><path d="M631.3096,414.6011 C626.3696,440.9211 624.14,452.77 620.21,473.72 " fill="none" id="ConnectionOrientedNetworking-backto-ConnectionOrientedNetworkManager" style="stroke:#181818;stroke-width:1.0;"/><polygon fill="none" points="634.63,396.91,625.4125,413.4943,637.2066,415.7079,634.63,396.91" style="stroke:#181818;stroke-width:1.0;"/></g><!--link NeighborhoodResolver to ConnectionOrientedNetworkManager--><g id="link_NeighborhoodResolver_ConnectionOrientedNetworkManager"><path codeLine="67" d="M385.99,502.46 C416.08,502.46 429.23,502.46 458.61,502.46 " fill="none" id="NeighborhoodResolver-ConnectionOrientedNetworkManager" style="stroke:#181818;stroke-width:1.0;"/><polygon fill="#181818" points="379.99,502.46,388.99,506.46,384.99,502.46,388.99,498.46,379.99,502.46" style="stroke:#181818;stroke-width:1.0;"/><polygon fill="#181818" points="470.61,502.46,464.61,498.46,458.61,502.46,464.61,506.46,470.61,502.46" style="stroke:#181818;stroke-width:1.0;"/><text fill="#000000" font-family="sans-serif" font-size="13" lengthAdjust="spacing" textLength="55" x="397.75" y="496.0284">mixed in</text></g><!--reverse link NetworkManager to ConnectionOrientedNetworkManager--><g id="link_NetworkManager_ConnectionOrientedNetworkManager"><path codeLine="68" d="M1437.9788,165.1983 C1448.9588,232.9683 1452.92,332.21 1387,396.66 C1289.6,491.91 910.99,433.02 777,457.66 C754.22,461.85 729.97,467.66 707.35,473.68 " fill="none" id="NetworkManager-backto-ConnectionOrientedNetworkManager" style="stroke:#181818;stroke-width:1.0;"/><polygon fill="none" points="1435.1,147.43,1432.056,166.1579,1443.9016,164.2387,1435.1,147.43" style="stroke:#181818;stroke-width:1.0;"/></g><!--reverse link ConnectionOrientedNetworkManager to SocketNetworkManager--><g id="link_ConnectionOrientedNetworkManager_SocketNetworkManager"><path codeLine="77" d="M611.7269,537.0616 C609.5369,559.4916 607.05,585.05 604.83,607.83 " fill="none" id="ConnectionOrientedNetworkManager-backto-SocketNetworkManager" style="stroke:#181818;stroke-width:1.0;stroke-dasharray:7.0,7.0;"/><polygon fill="#181818" points="612.31,531.09,607.4544,539.6587,611.8241,536.0663,615.4165,540.4361,612.31,531.09" style="stroke:#181818;stroke-width:1.0;"/></g><!--reverse link ConnectionOrientedTemplate to SocketNetworking--><g id="link_ConnectionOrientedTemplate_SocketNetworking"><path codeLine="82" d="M965.7067,563.4931 C987.5967,602.9831 1001.34,645.7 977,691.37 C963.13,717.4 937.66,737.05 912.92,751.05 " fill="none" id="ConnectionOrientedTemplate-backto-SocketNetworking" style="stroke:#181818;stroke-width:1.0;"/><polygon fill="none" points="956.98,547.75,960.459,566.402,970.9544,560.5842,956.98,547.75" style="stroke:#181818;stroke-width:1.0;"/></g><!--reverse link ConnectionOrientedTemplate to SocketNetworking--><g id="link_ConnectionOrientedTemplate_SocketNetworking"><path codeLine="90" d="M970.2762,562.1029 C977.2962,571.8829 974.17,567.6 981,577.26 C1024.62,638.99 1075.06,711.95 1101.89,750.89 " fill="none" id="ConnectionOrientedTemplate-backto-SocketNetworking-1" style="stroke:#181818;stroke-width:1.0;"/><polygon fill="none" points="959.78,547.48,965.4019,565.6017,975.1505,558.6042,959.78,547.48" style="stroke:#181818;stroke-width:1.0;"/></g><!--SRC=[pLPBRzim3BxtLn3TOSbQ6yCmO82Hvj0Nbc5TWwRRfUX1bfb4hIqPafosMFlV9yUE9JkEwswNvUI8huyVALBgdl6KI980unhbd50SZRGaJ8_7y7iFu9ZG-uKK6OzEH2man6onr66SOIuJCa9Pd9T7C-C4XNvAyLnmxOXUzlPIuuei4FQfaBY_zWusBFn0_I3a_GNXHad2Q0I3wyDtuIVo1JyEOOq9Ib35xm3oE72AAqPn4Zdd2daqI50fuoc0iyTKI7spqRiTEfeIAR8L3eO1J9AwsbhhfGOyOafB5cOQemt-IgQMHDhZ_FSUH7Y7LCE4exusK5LDwAGmcQu-jqkc1bAxvAjGcfC4swLdF4g5uNPBwlk-SsQIs_onXJWHd1lOJF1BoT0SHsLf65_qA8k3ug8emOHt22yptP2AJ0-mn1zKcPWAdMSwatXZyTqsB1aVv3KCrhGD1u9V5UKDB18u6iDFpXnttqrHaQEymhdrzr9zTR9nuCKurvwZrDSEdB2LZNFcgdGNgNT9whV2qc-fo8bfSafZeSpzS9YfFcbCbAg1ReQCIrbWSwah44enrJi0j7Rdnb7ljCDyU4shjkYVNjUDkCOaZOd6dIZmqQ2CL7SRT5yQ2E2OSIAVJf6AY8GnTb-ZIl-CD_LjEtDXGCjyY8EOToHM2rLbMrIy9cD6X8cnpHEY8abCHzOKSikva8b75jpCB4OX5Wj6Anr3qnfL6_4_q20DXLmA4LsX4l7g3OLVq-DwiBCTZc26pLblBRbZ5EnmyTQEwRdU-lJDwpDc4-L3CP_6xKG6aB17Z0niUwNDQlQRK9yzptirbcMXt7epGUzHRwTTY5lgzS3qyZm7r4xu82g_Wchb7u8TzuTLrPGPRYIziKgR5N8xt7KXSfRo-z26kOQoKF12eWnllD2hAIHbeeOX-UJLTt3LwNLl3OhyBFN7hzFjj5xr1hbR9HudscmyznrYkx8MhsERjmFC3JmlIxtdCJWl8Rzu-VWzPicQwr1eBP8jjjs-pd_VVbsKkO1oIQ_c3QcjsngtMxoeV-C3_Wj2o8hCg6If_cj2REPJbgR2l6t_0000]--></g></svg>